<?xml version="1.0" encoding="UTF-8"?>
<svg id="Layer_1" xmlns="http://www.w3.org/2000/svg" version="1.1" viewBox="0 0 360 59.8">
  <!-- Generator: Adobe Illustrator 29.1.0, SVG Export Plug-In . SVG Version: 2.1.0 Build 142)  -->
  <defs>
    <style>
      .st0, .st1 {
        fill-rule: evenodd;
      }

      .st0, .st2 {
        fill: #fff;
      }

      .st1 {
        fill: #00a564;
      }
    </style>
  </defs>
  <g>
    <polygon class="st0" points="194.2 12 198.5 18.5 203 12 203 20.6 204.2 20.6 204.2 9.6 203 9.6 198.5 16.3 194.2 9.6 192.9 9.6 192.9 20.6 194.2 20.6 194.2 12"/>
    <rect class="st2" x="207.3" y="12" width="1.3" height="8.6"/>
    <path class="st0" d="M220.1,16.3c0-2.4-1.8-4.3-4.6-4.3h-3.8v8.4h3.8c3,0,4.6-1.8,4.6-4.1ZM215.4,19.3h-2.4v-6.1h2.4c1.9,0,3.2,1.3,3.2,3s-1.1,3-3.2,3Z"/>
    <rect class="st2" x="221.2" y="14.5" width="4.3" height="1.3"/>
    <path class="st0" d="M232.5,9.6h-1.1l-5.3,11h1.4l1.4-3h6.1l1.4,3h1.4l-5.4-11ZM229.6,16.3l2.4-4.9,2.4,4.9h-4.8Z"/>
    <polygon class="st0" points="237.1 13.3 240.6 13.3 240.6 20.6 241.9 20.6 241.9 13.3 245.6 13.3 245.6 12 237.1 12 237.1 13.3"/>
    <path class="st0" d="M254.5,20.4h1.3l1.1-2.2h4.5l1.1,2.2h1.4l-4.3-8.4h-.8l-4.3,8.1v-.8h-6.2v-7.3h-1.4v8.6h7.7v-.2ZM259.3,14.1l1.6,3.2h-3.2l1.6-3.2Z"/>
    <polygon class="st0" points="266.5 14.5 271.9 20.6 272.7 20.6 272.7 12 271.4 12 271.4 18 266 12 265.2 12 265.2 20.6 266.5 20.6 266.5 14.5"/>
    <polygon class="st0" points="277.6 20.6 278.9 20.6 278.9 13.3 282.6 13.3 282.6 12 274 12 274 13.3 277.6 13.3 277.6 20.6"/>
    <rect class="st2" x="283.8" y="12" width="1.3" height="8.6"/>
    <path class="st0" d="M296.9,18.5l-1.1-.8c-.8,1.3-1.9,1.9-3.5,1.9s-3.8-1.3-3.8-3.2,1.6-3.2,3.8-3.2,2.7.5,3.3,1.4l1.1-.8c-.8-1.3-2.4-2.1-4.3-2.1-3,0-5.1,1.9-5.1,4.5s2.1,4.5,5.1,4.5,3.7-.8,4.5-2.2Z"/>
    <path class="st0" d="M198.7,26.1c-3.3,0-5.7,2.4-5.7,5.7s2.4,5.9,5.7,5.7c3.3,0,5.7-2.4,5.7-5.7s-2.4-5.7-5.7-5.7ZM198.5,36.3c-2.4,0-4.3-1.9-4.3-4.5s1.9-4.5,4.3-4.5,4.3,1.9,4.3,4.5-1.8,4.5-4.3,4.5Z"/>
    <path class="st0" d="M210.8,36.4c-2.2,0-3.8-1.3-3.8-3.2s1.6-3.2,3.8-3.2,2.7.5,3.3,1.4l1.1-.8c-.8-1.3-2.4-2.1-4.3-2.1-3,0-5.1,1.9-5.1,4.5s2.1,4.5,5.1,4.5,3.5-.8,4.5-2.2l-1.1-.8c-.8,1.3-1.9,1.9-3.5,1.9Z"/>
    <polygon class="st0" points="219.1 33.4 223.4 33.4 223.4 32.1 219.1 32.1 219.1 30.1 225.8 30.1 225.8 28.8 217.6 28.8 217.6 37.4 226.1 37.4 226.1 36.1 219.1 36.1 219.1 33.4"/>
    <path class="st0" d="M230.7,28.8l-4.5,8.4h1.4l1.1-2.2h4.5l1.1,2.2h1.4l-4.3-8.4h-.8ZM229.6,34l1.6-3.2,1.6,3.2h-3.2Z"/>
    <polygon class="st0" points="243.3 34.8 237.9 28.8 237.1 28.8 237.1 37.4 238.4 37.4 238.4 31.3 243.8 37.4 244.6 37.4 244.6 28.8 243.3 28.8 243.3 34.8"/>
    <path class="st0" d="M256.8,26.3h-4.8v11h4.8c3.7,0,5.7-2.2,5.7-5.4s-2.1-5.4-5.7-5.6ZM256.8,36.1h-3.3v-8.4h3.3c2.7,0,4.3,1.9,4.3,4.3s-1.4,4.1-4.3,4.1Z"/>
    <path class="st0" d="M267.5,28.8l-4.5,8.4h1.4l1.1-2.2h4.5l1.1,2.2h1.4l-4.3-8.4h-.8ZM266.4,34.1l1.6-3.2,1.6,3.2h-3.2Z"/>
    <polygon class="st0" points="280.1 28.8 271.6 28.8 271.6 30.1 275.3 30.1 275.3 37.4 276.6 37.4 276.6 30.1 280.1 30.1 280.1 28.8"/>
    <path class="st0" d="M283.4,28.8l-4.5,8.4h1.4l1.1-2.2h4.5l1.1,2.2h1.4l-4.3-8.4h-.8ZM282.1,34.1l1.8-3.2,1.6,3.2h-3.3Z"/>
    <path class="st0" d="M301,26.2h-6.2v11h1.4v-4.8h5.1c1.9,0,3.2-1.3,3.2-3.2s-1.3-3-3.5-3ZM300.8,31.2h-4.9v-3.7h4.9c1.4,0,2.1.8,2.1,1.9s-.6,1.8-2.1,1.8Z"/>
    <path class="st0" d="M310.6,28.5c-3.2,0-5.3,1.9-5.3,4.5s2.1,4.5,5.3,4.5,5.3-1.9,5.3-4.5-2.1-4.5-5.3-4.5ZM310.6,36.1c-2.4,0-3.8-1.4-3.8-3.2s1.4-3.2,3.8-3.2,3.8,1.4,3.8,3.2-1.6,3.3-3.8,3.2Z"/>
    <path class="st0" d="M326.5,31.2c0-1.4-1-2.4-2.7-2.4h-5.9v8.4h1.3v-3.7h3.8l2.4,3.7h1.4l-2.4-3.7c1.3-.2,2.1-1.3,2.1-2.4ZM319.2,32.3v-2.2h4.6c1,0,1.4.3,1.4,1.1s-.5,1.1-1.4,1.1h-4.6Z"/>
    <polygon class="st0" points="335.9 28.6 327.3 28.6 327.3 29.9 331 29.9 331 37.2 332.2 37.2 332.2 29.9 335.9 29.9 335.9 28.6"/>
    <path class="st0" d="M339.1,28.6l-4.5,8.4h1.4l1.1-2.2h4.5l1.1,2.2h1.4l-4.3-8.4h-.8ZM337.8,33.9l1.8-3.2,1.6,3.2h-3.3Z"/>
    <polygon class="st0" points="346.9 36 346.9 28.6 345.6 28.6 345.6 37.2 353.3 37.2 353.3 36 346.9 36"/>
  </g>
  <g>
    <polygon class="st0" points="23.8 27.3 10.5 7.2 6.7 7.2 6.7 40 10.9 40 10.9 14.4 23.8 33.8 36.8 14.4 36.8 40 41 40 41 7.2 37.2 7.2 23.8 27.3"/>
    <path class="st0" d="M58.7,7.2l-16.1,32.8h4.5l4.3-8.9h18l4.5,8.9h4.5L62,7.2h-3.3ZM53.1,27.3l7.2-14.5,7.3,14.5h-14.5Z"/>
    <path class="st0" d="M109.4,16.3c0-5.7-3.8-9.1-10.4-9.1h-18.8v32.8h4.1v-14.3h12.8l8.3,14.3h4.5l-8.3-14.5c4.8-.8,7.8-4.6,7.8-9.2ZM84.4,21.9v-10.8h14.7c4,0,6.1,2.1,6.1,5.4s-2.1,5.4-6.2,5.4h-14.5Z"/>
    <path class="st0" d="M140,29.5c-2.6,4.9-6.7,7.5-11.8,7.5-7.3,0-12.8-5.6-12.8-13.4s5.4-13.4,12.8-13.4,8.9,2.2,11,6.2l3.3-2.4c-3-4.8-8.3-7.7-14.4-7.7-9.9,0-17.1,7.2-17.1,17.2s7.2,17.2,17.1,17.2,12.1-3.2,15.1-8.9l-3.3-2.4Z"/>
  </g>
  <path class="st1" d="M179.4,23.7c0-9.6-7.8-17.4-17.4-17.4s-17.4,7.8-17.4,17.4,5.1,14.3,12.3,16.6l5.3,13.2,5.6-13.4c6.7-2.4,11.6-8.9,11.6-16.4ZM162.2,36.1c-7,0-12.6-5.6-12.6-12.6s5.6-12.6,12.6-12.6,12.6,5.6,12.6,12.6-5.7,12.6-12.6,12.6Z"/>
</svg>