<svg width="20" height="21" viewBox="0 0 20 21" fill="none" xmlns="http://www.w3.org/2000/svg">
<g clip-path="url(#clip0_2957_6871)">
<path d="M15.5248 2.03645H14.8534V1.28125C14.8534 0.849766 14.5387 0.5 14.1506 0.5C13.7624 0.5 13.4477 0.849766 13.4477 1.28125V2.03645H6.55221V1.28125C6.55221 0.849766 6.23757 0.5 5.8494 0.5C5.46124 0.5 5.14659 0.849766 5.14659 1.28125V2.03645H4.47523C2.55898 2.03645 1 3.76941 1 5.89949V16.6369C1 18.767 2.55898 20.5 4.47523 20.5H15.5248C17.441 20.5 19 18.767 19 16.6369V5.89949C19 3.76941 17.441 2.03645 15.5248 2.03645ZM4.47523 3.59895H5.14659V5.12238C5.14659 5.55387 5.46124 5.90363 5.8494 5.90363C6.23757 5.90363 6.55221 5.55387 6.55221 5.12238V3.59895H13.4478V5.12238C13.4478 5.55387 13.7624 5.90363 14.1506 5.90363C14.5388 5.90363 14.8534 5.55387 14.8534 5.12238V3.59895H15.5248C16.666 3.59895 17.5944 4.63098 17.5944 5.89949V6.64582H2.40562V5.89949C2.40562 4.63098 3.33404 3.59895 4.47523 3.59895ZM15.5248 18.9375H4.47523C3.33404 18.9375 2.40562 17.9055 2.40562 16.6369V8.20832H17.5944V16.6369C17.5944 17.9055 16.666 18.9375 15.5248 18.9375ZM7.24333 11.2812C7.24333 11.7127 6.92868 12.0625 6.54051 12.0625H5.15833C4.77016 12.0625 4.45552 11.7127 4.45552 11.2812C4.45552 10.8498 4.77016 10.5 5.15833 10.5H6.54051C6.92864 10.5 7.24333 10.8498 7.24333 11.2812ZM15.5445 11.2812C15.5445 11.7127 15.2299 12.0625 14.8417 12.0625H13.4595C13.0714 12.0625 12.7567 11.7127 12.7567 11.2812C12.7567 10.8498 13.0714 10.5 13.4595 10.5H14.8417C15.2298 10.5 15.5445 10.8498 15.5445 11.2812ZM11.3899 11.2812C11.3899 11.7127 11.0753 12.0625 10.6871 12.0625H9.30492C8.91676 12.0625 8.60211 11.7127 8.60211 11.2812C8.60211 10.8498 8.91676 10.5 9.30492 10.5H10.6871C11.0752 10.5 11.3899 10.8498 11.3899 11.2812ZM7.24333 15.8906C7.24333 16.3221 6.92868 16.6719 6.54051 16.6719H5.15833C4.77016 16.6719 4.45552 16.3221 4.45552 15.8906C4.45552 15.4591 4.77016 15.1094 5.15833 15.1094H6.54051C6.92864 15.1094 7.24333 15.4591 7.24333 15.8906ZM15.5445 15.8906C15.5445 16.3221 15.2299 16.6719 14.8417 16.6719H13.4595C13.0714 16.6719 12.7567 16.3221 12.7567 15.8906C12.7567 15.4591 13.0714 15.1094 13.4595 15.1094H14.8417C15.2298 15.1094 15.5445 15.4591 15.5445 15.8906ZM11.3899 15.8906C11.3899 16.3221 11.0753 16.6719 10.6871 16.6719H9.30492C8.91676 16.6719 8.60211 16.3221 8.60211 15.8906C8.60211 15.4591 8.91676 15.1094 9.30492 15.1094H10.6871C11.0752 15.1094 11.3899 15.4591 11.3899 15.8906Z" fill="#00A564"/>
</g>
<defs>
<clipPath id="clip0_2957_6871">
<rect width="20" height="20" fill="white" transform="translate(0 0.5)"/>
</clipPath>
</defs>
</svg>
