<svg width="24" height="25" viewBox="0 0 24 25" fill="none" xmlns="http://www.w3.org/2000/svg">
<circle cx="12" cy="12.5" r="11.5" stroke="#22408F"/>
<path d="M13.0029 13.8525C12.7043 14.0516 12.3575 14.1568 12 14.1568C11.6425 14.1568 11.2957 14.0516 10.9972 13.8525L6.0799 10.5743C6.05275 10.5561 6.02611 10.5372 6 10.5176V15.8894C6 16.5053 6.4998 16.9941 7.10468 16.9941H16.8953C17.5112 16.9941 18 16.4943 18 15.8894V10.5176C17.9738 10.5372 17.9471 10.5562 17.9199 10.5743L13.0029 13.8525Z" fill="#22408F"/>
<path d="M6.46992 9.98848L11.3872 13.2668C11.5733 13.3909 11.7866 13.4529 12 13.4529C12.2133 13.4529 12.4267 13.3909 12.6128 13.2668L17.5301 9.98848C17.8243 9.79243 18 9.4643 18 9.11016C18 8.50123 17.5046 8.00586 16.8957 8.00586H7.10431C6.4954 8.00588 6 8.50126 6 9.11075C5.99982 9.28447 6.04263 9.45554 6.12463 9.60869C6.20662 9.76184 6.32525 9.89232 6.46992 9.98848Z" fill="#22408F"/>
</svg>
