<svg width="454" height="79" viewBox="0 0 454 79" fill="none" xmlns="http://www.w3.org/2000/svg">
<g clip-path="url(#clip0_49728_2163)">
<path fill-rule="evenodd" clip-rule="evenodd" d="M240.938 21.0161H242.586L248.151 29.67L253.922 21.0161H255.571V35.2332H253.922V24.1068L248.151 32.5546L242.586 24.1068V35.2332H240.938V21.0161Z" fill="white"/>
<path d="M261.137 24.1069H259.488V35.2333H261.137V24.1069Z" fill="white"/>
<path fill-rule="evenodd" clip-rule="evenodd" d="M266.906 25.7553V33.585H269.997C272.677 33.585 274.119 31.9366 274.119 29.6701C274.119 27.4036 272.471 25.7553 269.997 25.7553H266.906ZM275.974 29.6701C275.974 32.7608 273.913 35.0273 269.997 35.0273H265.051V24.1069H269.997C273.707 24.1069 275.974 26.5795 275.974 29.6701Z" fill="white"/>
<path d="M282.983 27.4033H277.418V29.0517H282.983V27.4033Z" fill="white"/>
<path fill-rule="evenodd" clip-rule="evenodd" d="M294.526 29.67L291.434 23.2826L288.343 29.67H294.526ZM290.61 21.0161H292.053L299.06 35.2332H297.205L295.35 31.3183H287.518L285.664 35.2332H283.809L290.61 21.0161Z" fill="white"/>
<path fill-rule="evenodd" clip-rule="evenodd" d="M302.562 25.7553H298.027V24.1069H308.951V25.7553H304.211V35.2333H302.562V25.7553Z" fill="white"/>
<path fill-rule="evenodd" clip-rule="evenodd" d="M310.602 24.1069H312.457V33.585H320.495V35.2333H310.602V24.1069Z" fill="white"/>
<path fill-rule="evenodd" clip-rule="evenodd" d="M328.739 30.9064L326.678 26.7855L324.617 30.9064H328.739ZM326.06 24.1069H327.091L332.655 35.0273H330.8L329.358 32.1427H323.587L322.144 35.0273H320.289L326.06 24.1069Z" fill="white"/>
<path fill-rule="evenodd" clip-rule="evenodd" d="M334.305 24.1069H335.335L342.343 31.9366V24.1069H343.992V35.2333H342.961L335.954 27.4036V35.2333H334.305V24.1069Z" fill="white"/>
<path fill-rule="evenodd" clip-rule="evenodd" d="M350.381 25.7553H345.641V24.1069H356.77V25.7553H352.03V35.2333H350.381V25.7553Z" fill="white"/>
<path d="M360.067 24.1069H358.418V35.2333H360.067V24.1069Z" fill="white"/>
<path fill-rule="evenodd" clip-rule="evenodd" d="M369.548 35.4394C365.632 35.4394 362.953 32.9668 362.953 29.6701C362.953 26.3734 365.632 23.9009 369.548 23.9009C372.022 23.9009 374.083 24.9311 375.113 26.5795L373.671 27.6097C372.846 26.3734 371.197 25.7553 369.342 25.7553C366.457 25.7553 364.396 27.6097 364.396 29.8762C364.396 32.3487 366.457 33.9971 369.342 33.9971C371.403 33.9971 372.846 33.1729 373.877 31.5245L375.319 32.5548C374.289 34.4092 372.228 35.4394 369.548 35.4394Z" fill="white"/>
<path fill-rule="evenodd" clip-rule="evenodd" d="M399.228 28.0216C399.228 24.7249 396.961 22.2524 393.663 22.2524C390.571 22.2524 388.098 24.7249 388.098 28.0216C388.098 31.3183 390.571 33.7909 393.663 33.7909C396.961 33.7909 399.228 31.5244 399.228 28.0216ZM386.449 28.0216C386.449 23.6947 389.541 20.604 393.869 20.604C398.197 20.604 401.289 23.6947 401.289 28.0216C401.289 32.3485 398.197 35.4392 393.869 35.4392C389.541 35.6453 386.449 32.3485 386.449 28.0216Z" fill="white"/>
<path fill-rule="evenodd" clip-rule="evenodd" d="M409.736 35.4394C405.82 35.4394 403.141 32.9668 403.141 29.6701C403.141 26.3734 405.82 23.9009 409.736 23.9009C412.209 23.9009 414.27 24.9311 415.301 26.5795L413.858 27.6097C413.034 26.3734 411.385 25.7553 409.53 25.7553C406.644 25.7553 404.583 27.6097 404.583 29.8762C404.583 32.3487 406.644 33.9971 409.53 33.9971C411.591 33.9971 413.034 33.1729 414.064 31.5245L415.507 32.5548C414.27 34.4092 412.209 35.4394 409.736 35.4394Z" fill="white"/>
<path fill-rule="evenodd" clip-rule="evenodd" d="M418.395 24.1069H428.906V25.7553H420.249V28.4339H425.814V30.0822H420.249V33.585H429.318V35.2333H418.395V24.1069Z" fill="white"/>
<path fill-rule="evenodd" clip-rule="evenodd" d="M437.974 30.9064L435.913 26.7855L433.852 30.9064H437.974ZM435.294 24.1069H436.325L441.89 35.0273H440.035L438.592 32.1427H432.821L431.378 35.0273H429.523L435.294 24.1069Z" fill="white"/>
<path fill-rule="evenodd" clip-rule="evenodd" d="M443.539 24.1069H444.57L451.577 31.9366V24.1069H453.226V35.2333H452.195L445.188 27.4036V35.2333H443.539V24.1069Z" fill="white"/>
<path fill-rule="evenodd" clip-rule="evenodd" d="M241.968 43.0634V53.9838H246.296C250.006 53.9838 251.861 51.7173 251.861 48.6266C251.861 45.5359 249.8 43.0634 246.296 43.0634H241.968ZM253.716 48.4205C253.716 52.5414 251.037 55.4261 246.296 55.4261H240.113V41.209H246.296C251.037 41.415 253.716 44.5057 253.716 48.4205Z" fill="white"/>
<path fill-rule="evenodd" clip-rule="evenodd" d="M262.786 51.3053L260.725 47.1844L258.664 51.3053H262.786ZM260.107 44.5059H261.137L266.702 55.4262H264.847L263.405 52.5416H257.634L256.191 55.4262H254.336L260.107 44.5059Z" fill="white"/>
<path fill-rule="evenodd" clip-rule="evenodd" d="M270.205 46.1542H265.465V44.5059H276.388V46.1542H271.854V55.6323H270.205V46.1542Z" fill="white"/>
<path fill-rule="evenodd" clip-rule="evenodd" d="M283.396 51.3053L281.335 47.1844L279.067 51.3053H283.396ZM280.716 44.5059H281.747L287.312 55.4262H285.457L284.014 52.5416H278.243L276.8 55.4262H274.945L280.716 44.5059Z" fill="white"/>
<path fill-rule="evenodd" clip-rule="evenodd" d="M306.065 47.8024C307.92 47.8024 308.745 46.9782 308.745 45.5359C308.745 44.0936 307.92 43.0634 306.065 43.0634H299.676V47.8024H306.065ZM298.027 41.415H306.272C309.157 41.415 310.806 42.8574 310.806 45.3299C310.806 47.8024 309.157 49.4508 306.684 49.4508H300.088V55.6321H298.233V41.415H298.027Z" fill="white"/>
<path fill-rule="evenodd" clip-rule="evenodd" d="M323.588 50.0695C323.588 47.8031 321.733 45.9487 318.641 45.9487C315.55 45.9487 313.695 47.8031 313.695 50.0695C313.695 52.336 315.55 54.1904 318.641 54.1904C321.527 54.3965 323.588 52.5421 323.588 50.0695ZM311.84 50.0695C311.84 46.7728 314.519 44.3003 318.641 44.3003C322.763 44.3003 325.443 46.7728 325.443 50.0695C325.443 53.3663 322.763 55.8388 318.641 55.8388C314.519 55.8388 311.84 53.3663 311.84 50.0695Z" fill="white"/>
<path fill-rule="evenodd" clip-rule="evenodd" d="M335.747 49.2449C336.984 49.2449 337.602 48.6268 337.602 47.8026C337.602 46.7724 336.984 46.3603 335.747 46.3603H329.77V49.2449H335.747ZM329.77 55.6323H328.121V44.7119H335.747C338.014 44.7119 339.251 45.9482 339.251 47.8026C339.251 49.2449 338.22 50.6872 336.571 50.8933L339.663 55.6323H337.808L334.716 50.8933H329.77V55.6323Z" fill="white"/>
<path fill-rule="evenodd" clip-rule="evenodd" d="M345.022 46.1542H340.281V44.5059H351.411V46.1542H346.671V55.6323H345.022V46.1542Z" fill="white"/>
<path fill-rule="evenodd" clip-rule="evenodd" d="M358.212 51.3053L356.151 47.1844L353.884 51.3053H358.212ZM355.533 44.5059H356.563L362.128 55.4262H360.273L358.83 52.5416H353.059L351.617 55.4262H349.762L355.533 44.5059Z" fill="white"/>
<path fill-rule="evenodd" clip-rule="evenodd" d="M363.984 44.5059H365.633V53.9839H373.877V55.6323H363.984V44.5059Z" fill="white"/>
<path fill-rule="evenodd" clip-rule="evenodd" d="M0.207031 17.9258H5.15356L22.2603 43.8874L39.5731 17.9258H44.5197V60.371H39.1609V27.1978L22.2603 52.3352L5.56577 27.1978V60.371H0.207031V17.9258Z" fill="white"/>
<path fill-rule="evenodd" clip-rule="evenodd" d="M78.9406 43.8874L69.4597 25.1373L60.185 43.8874H78.9406ZM67.3987 17.9258H71.7269L92.7496 60.371H86.9787L81.2077 48.8325H57.9178L52.353 60.371H46.582L67.3987 17.9258Z" fill="white"/>
<path fill-rule="evenodd" clip-rule="evenodd" d="M119.337 36.8819C124.696 36.8819 127.375 34.4094 127.375 29.8764C127.375 25.5494 124.696 22.8709 119.543 22.8709H100.581V36.8819H119.337ZM95.2227 17.9258H119.543C127.993 17.9258 132.94 22.2527 132.94 29.6703C132.94 35.6456 129.024 40.5907 122.841 41.6209L133.558 60.371H127.787L117.07 41.827H100.581V60.371H95.2227V17.9258Z" fill="white"/>
<path fill-rule="evenodd" clip-rule="evenodd" d="M176.84 49.8627C172.924 57.2803 165.917 61.4012 157.26 61.4012C144.482 61.4012 135.207 52.1292 135.207 39.1483C135.207 26.1675 144.482 16.8955 157.26 16.8955C165.092 16.8955 171.894 20.6043 175.81 26.7857L171.482 29.8763C168.802 24.7252 163.443 21.8406 157.26 21.8406C147.779 21.8406 140.772 29.0521 140.772 39.1483C140.772 49.2445 147.779 56.4561 157.26 56.4561C163.856 56.4561 169.214 53.1594 172.512 46.772L176.84 49.8627Z" fill="white"/>
<path fill-rule="evenodd" clip-rule="evenodd" d="M223.005 39.1483C223.005 26.7856 212.906 16.6895 200.54 16.6895C188.173 16.6895 178.074 26.7856 178.074 39.1483C178.074 49.2445 184.67 57.6923 193.944 60.577L200.746 77.6787L207.959 60.3709C216.616 57.2803 223.005 48.8324 223.005 39.1483ZM200.746 55.2198C191.677 55.2198 184.463 48.0082 184.463 38.9423C184.463 29.8763 191.677 22.6647 200.746 22.6647C209.814 22.6647 217.028 29.8763 217.028 38.9423C217.028 47.8022 209.608 55.2198 200.746 55.2198Z" fill="white"/>
</g>
<defs>
<clipPath id="clip0_49728_2163">
<rect width="453.432" height="78.297" fill="white"/>
</clipPath>
</defs>
</svg>