<svg width="55" height="55" viewBox="0 0 55 55" fill="none" xmlns="http://www.w3.org/2000/svg">
<g clip-path="url(#clip0_2029_1635)">
<path d="M27.5 55C42.6878 55 55 42.6878 55 27.5C55 12.3122 42.6878 0 27.5 0C12.3122 0 0 12.3122 0 27.5C0 42.6878 12.3122 55 27.5 55Z" fill="white"/>
<path d="M52.258 27.5821C52.258 32.5522 50.7842 37.4106 48.023 41.543C45.2618 45.6755 41.3372 48.8963 36.7455 50.7983C32.1537 52.7002 27.1011 53.1979 22.2266 52.2283C17.352 51.2587 12.8745 48.8654 9.36013 45.351C5.84577 41.8367 3.45247 37.3591 2.48286 32.4846C1.51325 27.61 2.01089 22.5574 3.91284 17.9657C5.8148 13.3739 9.03564 9.44933 13.1681 6.68812C17.3005 3.92691 22.159 2.45313 27.129 2.45312C33.7934 2.45392 40.1846 5.10169 44.897 9.81412C49.6094 14.5265 52.2572 20.9177 52.258 27.5821ZM6.07301 27.5821C6.07301 31.7466 7.30792 35.8176 9.62159 39.2802C11.9353 42.7429 15.2237 45.4417 19.0712 47.0353C22.9187 48.629 27.1524 49.046 31.2368 48.2335C35.3213 47.4211 39.0731 45.4157 42.0179 42.471C44.9626 39.5262 46.968 35.7744 47.7804 31.6899C48.5929 27.6055 48.1759 23.3718 46.5822 19.5243C44.9885 15.6769 42.2897 12.3884 38.8271 10.0747C35.3645 7.76104 31.2935 6.52612 27.129 6.52612C24.3637 6.52547 21.6254 7.06965 19.0705 8.12758C16.5155 9.18551 14.1941 10.7365 12.2387 12.6918C10.2833 14.6472 8.7324 16.9686 7.67447 19.5236C6.61654 22.0785 6.07235 24.8168 6.07301 27.5821ZM46.597 27.5821C46.597 31.4325 45.4552 35.1965 43.3161 38.398C41.1769 41.5995 38.1364 44.0947 34.5791 45.5682C31.0218 47.0417 27.1074 47.4272 23.331 46.6761C19.5546 45.9249 16.0857 44.0707 13.3631 41.3481C10.6404 38.6254 8.78626 35.1566 8.03508 31.3801C7.28391 27.6037 7.66944 23.6894 9.14292 20.132C10.6164 16.5747 13.1117 13.5342 16.3132 11.3951C19.5147 9.2559 23.2786 8.11413 27.129 8.11413C29.6867 8.11084 32.2198 8.61212 34.5834 9.58928C36.9471 10.5664 39.0947 12.0003 40.9034 13.8087C42.712 15.617 44.1462 17.7645 45.1237 20.1279C46.1012 22.4914 46.6029 25.0245 46.6 27.5821H46.597ZM40.246 20.5401C40.1981 20.335 40.1098 20.1415 39.9862 19.971C39.8626 19.8004 39.7062 19.6563 39.5262 19.547C39.3462 19.4376 39.1461 19.3653 38.9378 19.3343C38.7295 19.3032 38.5171 19.314 38.313 19.3661C28.513 21.6441 25.748 21.6441 15.945 19.3661C15.7384 19.3086 15.5224 19.2932 15.3098 19.3208C15.0972 19.3484 14.8922 19.4185 14.7072 19.5268C14.5222 19.6352 14.3608 19.7796 14.2327 19.9516C14.1046 20.1235 14.0124 20.3195 13.9615 20.5278C13.9106 20.7361 13.9021 20.9525 13.9365 21.1641C13.9709 21.3758 14.0475 21.5783 14.1617 21.7598C14.276 21.9413 14.4255 22.0979 14.6014 22.2205C14.7774 22.343 14.9762 22.4289 15.186 22.4731C17.9316 23.1891 20.7222 23.7197 23.539 24.0611C23.47 34.2781 22.296 36.5611 20.985 39.8011C20.811 40.2497 20.8224 40.7491 21.0166 41.1893C21.2108 41.6296 21.5719 41.9746 22.0205 42.1486C22.4691 42.3226 22.9685 42.3113 23.4087 42.1171C23.849 41.9229 24.194 41.5617 24.368 41.1131C25.4901 38.5846 26.2567 35.9129 26.646 33.1741H27.613C27.9821 35.9172 28.7495 38.5917 29.891 41.1131C29.9772 41.3353 30.1062 41.5382 30.2708 41.7105C30.4354 41.8828 30.6323 42.0209 30.8503 42.1171C31.0683 42.2132 31.3031 42.2655 31.5413 42.2709C31.7795 42.2763 32.0164 42.2348 32.2385 42.1486C32.4606 42.0625 32.6636 41.9334 32.8359 41.7688C33.0081 41.6042 33.1463 41.4073 33.2424 41.1893C33.3386 40.9713 33.3909 40.7366 33.3963 40.4984C33.4017 40.2602 33.3602 40.0233 33.274 39.8011C31.962 36.4871 30.858 34.2781 30.72 24.0611C33.5348 23.707 36.3246 23.1766 39.073 22.4731C39.2789 22.4266 39.4732 22.3392 39.6445 22.2159C39.8158 22.0926 39.9605 21.9361 40.07 21.7557C40.1795 21.5753 40.2515 21.3747 40.2817 21.1658C40.312 20.957 40.2998 20.7442 40.246 20.5401ZM23.47 16.2601C23.47 16.9838 23.6846 17.6912 24.0867 18.293C24.4887 18.8947 25.0602 19.3637 25.7288 19.6406C26.3974 19.9175 27.1331 19.99 27.8428 19.8488C28.5526 19.7076 29.2046 19.3591 29.7163 18.8474C30.228 18.3357 30.5765 17.6837 30.7177 16.974C30.8589 16.2642 30.7864 15.5285 30.5095 14.8599C30.2325 14.1913 29.7636 13.6198 29.1618 13.2178C28.5601 12.8157 27.8527 12.6011 27.129 12.6011C26.6478 12.5985 26.1708 12.6913 25.7256 12.8742C25.2805 13.0572 24.8761 13.3266 24.5358 13.6669C24.1955 14.0072 23.9261 14.4116 23.7431 14.8568C23.5602 15.3019 23.4674 15.7789 23.47 16.2601Z" fill="#FFA400"/>
</g>
<defs>
<clipPath id="clip0_2029_1635">
<rect width="55" height="55" fill="white"/>
</clipPath>
</defs>
</svg>
