<svg width="60" height="60" viewBox="0 0 60 60" fill="none" xmlns="http://www.w3.org/2000/svg">
<g clip-path="url(#clip0_2029_1639)">
<circle cx="30" cy="30" r="30" fill="#FFA400"/>
<path d="M44.6729 22.0061C44.3042 20.7008 43.2233 19.6718 41.8526 19.3204C39.3485 18.668 29.3318 18.668 29.3318 18.668C29.3318 18.668 19.3155 18.668 16.8114 19.2956C15.467 19.6467 14.3598 20.701 13.991 22.0061C13.332 24.3903 13.332 29.3347 13.332 29.3347C13.332 29.3347 13.332 34.304 13.991 36.6633C14.3602 37.9684 15.4406 38.9974 16.8116 39.3489C19.3418 40.0014 29.3322 40.0014 29.3322 40.0014C29.3322 40.0014 39.3485 40.0014 41.8526 39.3738C43.2235 39.0225 44.3042 37.9935 44.6733 36.6884C45.3321 34.304 45.3321 29.3598 45.3321 29.3598C45.3321 29.3598 45.3585 24.3903 44.6729 22.0061ZM26.1427 33.9025V24.7669L34.472 29.3347L26.1427 33.9025Z" fill="white"/>
</g>
<defs>
<clipPath id="clip0_2029_1639">
<rect width="60" height="60" fill="white"/>
</clipPath>
</defs>
</svg>
