<svg width="20" height="20" viewBox="0 0 20 20" fill="none" xmlns="http://www.w3.org/2000/svg">
<path d="M18.3875 8.90037C18.2106 8.65602 17.9773 8.45798 17.7074 8.32306C17.4376 8.18814 17.1392 8.12033 16.8375 8.12537H16.6375V6.87538C16.6376 6.62596 16.5878 6.37904 16.4913 6.14908C16.3947 5.91911 16.2532 5.71072 16.0751 5.53611C15.897 5.3615 15.6859 5.22418 15.4541 5.13219C15.2222 5.0402 14.9744 4.99539 14.725 5.00038H10.675C10.5235 4.99948 10.3764 4.94899 10.2563 4.85663L7.75625 2.90663C7.41408 2.64316 6.99435 2.50032 6.5625 2.50038H3.1625C2.91314 2.49539 2.66528 2.5402 2.43345 2.63219C2.20162 2.72418 1.99047 2.8615 1.81237 3.03611C1.63427 3.21072 1.49279 3.41911 1.39623 3.64907C1.29966 3.87904 1.24995 4.12596 1.25 4.37538V15.6254C1.24946 15.9713 1.34933 16.31 1.5375 16.6004C1.71044 16.8753 1.95013 17.102 2.23426 17.2594C2.51839 17.4167 2.83771 17.4996 3.1625 17.5004H15.0375C15.4456 17.5105 15.8458 17.3873 16.1775 17.1493C16.5091 16.9112 16.754 16.5715 16.875 16.1816L18.6625 10.5566C18.7485 10.2782 18.7685 9.9835 18.7207 9.696C18.673 9.4085 18.5589 9.13608 18.3875 8.90037ZM2.5 4.37538C2.49985 4.29005 2.51717 4.20559 2.5509 4.12721C2.58462 4.04883 2.63405 3.97818 2.69611 3.91963C2.75818 3.86107 2.83158 3.81585 2.91179 3.78674C2.992 3.75763 3.07733 3.74526 3.1625 3.75038H6.5625C6.7161 3.75037 6.86544 3.80088 6.9875 3.89413L9.4875 5.84413C9.8273 6.10755 10.2451 6.25047 10.675 6.25038H14.725C14.8102 6.24526 14.8955 6.25763 14.9757 6.28674C15.0559 6.31585 15.1293 6.36107 15.1914 6.41963C15.2535 6.47818 15.3029 6.54883 15.3366 6.62721C15.3703 6.70559 15.3877 6.79005 15.3875 6.87538V8.12537H5.3875C4.98259 8.11931 4.5866 8.24449 4.25876 8.48221C3.93091 8.71992 3.68884 9.05739 3.56875 9.44412L2.5 12.8379V4.37538ZM17.5 10.1816L15.7125 15.8066C15.6724 15.9395 15.5892 16.0552 15.476 16.1356C15.3629 16.2159 15.2262 16.2563 15.0875 16.2504H3.2125C3.07154 16.2501 2.93408 16.2064 2.81875 16.1254L4.81875 9.81913C4.85887 9.68626 4.94208 9.57054 5.05524 9.49019C5.1684 9.40984 5.30509 9.36945 5.44375 9.37537H16.8375C16.9428 9.37465 17.0468 9.39857 17.1413 9.44524C17.2357 9.4919 17.3179 9.56001 17.3813 9.64412C17.4408 9.71871 17.4824 9.80593 17.503 9.8991C17.5236 9.99227 17.5226 10.0889 17.5 10.1816Z" fill="white"/>
</svg>
