<svg width="20" height="20" viewBox="0 0 20 20" fill="none" xmlns="http://www.w3.org/2000/svg">
<g clip-path="url(#clip0_49195_960)">
<path d="M11.3435 14.0913C11.139 14.1104 10.9337 14.0642 10.7571 13.9595C10.6934 13.8941 10.6452 13.8152 10.6161 13.7286C10.587 13.6421 10.5777 13.5501 10.5889 13.4595C10.5937 13.3067 10.612 13.1546 10.6435 13.0049C10.674 12.8333 10.7134 12.6634 10.7616 12.4958L11.298 10.6504C11.3533 10.4682 11.3899 10.2809 11.4071 10.0913C11.4071 9.88674 11.4344 9.74581 11.4344 9.66401C11.44 9.48405 11.4049 9.30514 11.3317 9.14064C11.2585 8.97614 11.1491 8.8303 11.0116 8.71401C10.6691 8.45104 10.2425 8.32178 9.81164 8.35038C9.50285 8.35502 9.19646 8.40558 8.90254 8.50038C8.58133 8.60038 8.24344 8.72007 7.88891 8.85948L7.73438 9.45948C7.83891 9.42311 7.96621 9.38221 8.11164 9.33675C8.25038 9.29564 8.39421 9.27422 8.53891 9.27311C8.74189 9.25111 8.94615 9.30097 9.11617 9.41401C9.17332 9.4822 9.21607 9.56125 9.24185 9.6464C9.26762 9.73156 9.2759 9.82104 9.26617 9.90948C9.26567 10.0623 9.24891 10.2147 9.21617 10.364C9.18434 10.5231 9.14344 10.6913 9.09344 10.8685L8.55254 12.7231C8.50895 12.8955 8.47406 13.0699 8.44801 13.2458C8.42677 13.3964 8.41613 13.5483 8.41617 13.7003C8.41508 13.8815 8.45547 14.0604 8.53426 14.2235C8.61305 14.3866 8.72814 14.5295 8.8707 14.6412C9.21853 14.9083 9.65115 15.0407 10.0889 15.014C10.3971 15.0203 10.7042 14.9758 10.998 14.8821C11.2555 14.7942 11.5995 14.6685 12.0298 14.5049L12.1753 13.9321C12.0587 13.9805 11.9387 14.02 11.8162 14.0503C11.6612 14.0857 11.5022 14.0995 11.3435 14.0913ZM11.9116 5.34132C11.6643 5.11412 11.3383 4.9919 11.0025 5.00042C10.6669 4.99285 10.3413 5.11495 10.0934 5.34132C9.63906 5.73311 9.58832 6.41909 9.98016 6.8735C10.0151 6.91401 10.0529 6.95187 10.0934 6.98678C10.6111 7.44979 11.394 7.44979 11.9116 6.98678C12.366 6.59112 12.4136 5.90206 12.0179 5.44768C11.985 5.40981 11.9495 5.37427 11.9116 5.34132Z" fill="#22408F"/>
<path d="M10 0C4.47715 0 0 4.47715 0 10C0 15.5229 4.47715 20 10 20C15.5229 20 20 15.5229 20 10C20 4.47715 15.5229 0 10 0ZM10 19.0909C4.97922 19.0909 0.909102 15.0208 0.909102 10C0.909102 4.97922 4.97922 0.909102 10 0.909102C15.0208 0.909102 19.0909 4.97922 19.0909 10C19.0909 15.0208 15.0208 19.0909 10 19.0909Z" fill="#22408F"/>
</g>
<defs>
<clipPath id="clip0_49195_960">
<rect width="20" height="20" rx="10" fill="white"/>
</clipPath>
</defs>
</svg>
