<svg width="15" height="20" viewBox="0 0 15 20" fill="none" xmlns="http://www.w3.org/2000/svg">
<path fill-rule="evenodd" clip-rule="evenodd" d="M14.806 7.40298C14.806 10.6955 12.6566 13.4859 9.68442 14.4478H9.79081L7.50226 20L5.1142 14.4478H5.12155C2.14939 13.4859 0 10.6955 0 7.40298C0 3.31443 3.31443 0 7.40298 0C11.4915 0 14.806 3.31443 14.806 7.40298ZM7.40398 13.1741C10.5253 13.1741 13.0557 10.6438 13.0557 7.52239C13.0557 4.40101 10.5253 1.87064 7.40398 1.87064C4.28261 1.87064 1.75224 4.40101 1.75224 7.52239C1.75224 10.6438 4.28261 13.1741 7.40398 13.1741Z" fill="#00A564"/>
</svg>
