<svg width="24" height="26" viewBox="0 0 24 26" fill="none" xmlns="http://www.w3.org/2000/svg">
<path d="M17.2912 26H3.99025C2.92434 26 1.92232 25.5492 1.16869 24.7307C0.415055 23.9123 0 22.824 0 21.6666V7.22221C0 6.06471 0.415102 4.97654 1.16873 4.15812C1.92237 3.3397 2.92439 2.88891 3.9903 2.88891H9.31065C10.0453 2.88891 10.6408 3.53557 10.6408 4.33336C10.6408 5.13115 10.0453 5.77781 9.31065 5.77781H3.99025C3.63495 5.77781 3.30097 5.92807 3.04979 6.20085C2.79861 6.47362 2.6602 6.83636 2.6602 7.22221V21.6666C2.6602 22.0525 2.79857 22.4152 3.04979 22.6881C3.30097 22.9608 3.63495 23.1111 3.99025 23.1111H17.2911C17.6464 23.1111 17.9804 22.9608 18.2316 22.688C18.4828 22.4152 18.6212 22.0524 18.6212 21.6666V15.8889C18.6212 15.0911 19.2167 14.4445 19.9513 14.4445C20.6859 14.4445 21.2815 15.0911 21.2815 15.8889V21.6666C21.2815 22.8241 20.8664 23.9123 20.1127 24.7308C19.359 25.5492 18.3569 26 17.2912 26ZM9.31065 17.3333C8.97022 17.3333 8.62983 17.1923 8.37015 16.9102C7.85074 16.3462 7.85074 15.4315 8.37015 14.8675L19.4004 2.88891H14.631C13.8964 2.88891 13.301 2.24224 13.301 1.44445C13.301 0.646667 13.8964 9.53935e-07 14.631 9.53935e-07H22.6116C22.9589 -0.000432862 23.2925 0.147112 23.5407 0.410929L23.5408 0.411029L23.5434 0.413855L23.5442 0.414662L23.5462 0.416883L23.5476 0.418346L23.5491 0.41996L23.5519 0.423089L23.5548 0.426217L23.5563 0.427832L23.5576 0.429295C23.5586 0.43025 23.5595 0.431279 23.5604 0.432373L23.563 0.435249L23.5631 0.43535C23.806 0.704936 23.9419 1.06723 23.9415 1.4444V10.1111C23.9415 10.9089 23.346 11.5555 22.6113 11.5555C21.8767 11.5555 21.2813 10.9089 21.2813 10.1111V4.93169L10.2509 16.9103C9.99143 17.1924 9.65104 17.3333 9.31065 17.3333Z" fill="#EAB13A"/>
</svg>
