<svg width="24" height="24" viewBox="0 0 24 24" fill="none" xmlns="http://www.w3.org/2000/svg">
<path d="M23.7733 22.6943L17.5768 16.5969C19.1995 14.834 20.1965 12.5024 20.1965 9.93682C20.1957 4.44852 15.6752 0 10.0983 0C4.52153 0 0.000976562 4.44852 0.000976562 9.93682C0.000976562 15.4251 4.52153 19.8736 10.0983 19.8736C12.5079 19.8736 14.7179 19.0402 16.4538 17.6546L22.6743 23.776C22.9774 24.0746 23.4695 24.0746 23.7726 23.776C23.8446 23.7056 23.9019 23.6215 23.9411 23.5287C23.9802 23.4358 24.0004 23.3361 24.0005 23.2353C24.0006 23.1345 23.9805 23.0348 23.9415 22.9419C23.9024 22.849 23.8453 22.7648 23.7733 22.6943ZM10.0983 18.3448C5.37975 18.3448 1.5546 14.5804 1.5546 9.93682C1.5546 5.29321 5.37975 1.52884 10.0983 1.52884C14.817 1.52884 18.6421 5.29321 18.6421 9.93682C18.6421 14.5804 14.817 18.3448 10.0983 18.3448Z" fill="white"/>
</svg>
