<svg width="32" height="32" viewBox="0 0 32 32" fill="none" xmlns="http://www.w3.org/2000/svg">
<path d="M23.9703 11.8693C23.7798 11.1948 23.2214 10.6632 22.5132 10.4816C21.2194 10.1445 16.0441 10.1445 16.0441 10.1445C16.0441 10.1445 10.869 10.1445 9.57521 10.4688C8.88063 10.6502 8.30856 11.1949 8.11804 11.8693C7.77756 13.1011 7.77756 15.6557 7.77756 15.6557C7.77756 15.6557 7.77756 18.2232 8.11804 19.4421C8.30876 20.1164 8.86701 20.6481 9.57531 20.8297C10.8826 21.1668 16.0443 21.1668 16.0443 21.1668C16.0443 21.1668 21.2194 21.1668 22.5132 20.8425C23.2215 20.661 23.7798 20.1294 23.9705 19.4551C24.3109 18.2232 24.3109 15.6686 24.3109 15.6686C24.3109 15.6686 24.3245 13.1011 23.9703 11.8693ZM14.3964 18.0157V13.2956L18.6999 15.6557L14.3964 18.0157Z" fill="white"/>
</svg>
