<svg width="23" height="22" viewBox="0 0 23 22" fill="none" xmlns="http://www.w3.org/2000/svg">
<circle cx="11.7783" cy="11" r="11" fill="white"/>
<path d="M11.5301 10.7438C12.4565 10.7438 13.2588 10.4115 13.9143 9.7559C14.5698 9.10042 14.9021 8.29838 14.9021 7.37181C14.9021 6.44552 14.5698 5.6434 13.9142 4.98768C13.2586 4.33228 12.4564 4 11.5301 4C10.6035 4 9.80143 4.33228 9.14595 4.98779C8.49047 5.64329 8.15806 6.44544 8.15806 7.37181C8.15806 8.29838 8.49045 9.10053 9.14606 9.75603C9.80168 10.4114 10.6038 10.7438 11.5301 10.7438ZM17.4302 14.7652C17.4113 14.4925 17.373 14.1948 17.3167 13.8806C17.2599 13.564 17.1868 13.2648 17.0992 12.9912C17.0087 12.7085 16.8857 12.4293 16.7336 12.1617C16.5757 11.884 16.3903 11.6422 16.1822 11.4432C15.9646 11.235 15.6983 11.0677 15.3902 10.9456C15.0832 10.8242 14.743 10.7626 14.3791 10.7626C14.2362 10.7626 14.098 10.8213 13.8311 10.9951C13.6414 11.1186 13.4511 11.2413 13.2602 11.3631C13.0768 11.48 12.8284 11.5894 12.5215 11.6886C12.2221 11.7854 11.9181 11.8346 11.6181 11.8346C11.3181 11.8346 11.0142 11.7854 10.7145 11.6886C10.4079 11.5895 10.1595 11.4801 9.97629 11.3632C9.76383 11.2274 9.57161 11.1035 9.40487 10.9949C9.13827 10.8211 8.99994 10.7625 8.85704 10.7625C8.49302 10.7625 8.15294 10.8241 7.84607 10.9457C7.53823 11.0676 7.27174 11.2349 7.05395 11.4433C6.84601 11.6424 6.66048 11.8841 6.50282 12.1617C6.35084 12.4293 6.2278 12.7084 6.13721 12.9913C6.04971 13.2649 5.97656 13.564 5.91974 13.8806C5.86344 14.1944 5.82522 14.4921 5.8063 14.7656C5.78747 15.0407 5.77814 15.3165 5.77832 15.5923C5.77832 16.3231 6.01063 16.9147 6.46875 17.351C6.9212 17.7816 7.51986 18 8.24788 18H14.9889C15.717 18 16.3154 17.7817 16.768 17.351C17.2262 16.915 17.4585 16.3233 17.4585 15.5922C17.4584 15.3101 17.4489 15.0318 17.4302 14.7652Z" fill="#00A564"/>
</svg>
