<svg width="25" height="24" viewBox="0 0 25 24" fill="none" xmlns="http://www.w3.org/2000/svg">
<g clip-path="url(#clip0_2034_5831)">
<path d="M24.5516 22.6943L18.3552 16.5969C19.9778 14.834 20.9748 12.5024 20.9748 9.93682C20.974 4.44852 16.4535 0 10.8767 0C5.29985 0 0.779297 4.44852 0.779297 9.93682C0.779297 15.4251 5.29985 19.8736 10.8767 19.8736C13.2862 19.8736 15.4962 19.0402 17.2322 17.6546L23.4526 23.776C23.7557 24.0746 24.2478 24.0746 24.5509 23.776C24.623 23.7056 24.6803 23.6215 24.7194 23.5287C24.7585 23.4358 24.7787 23.3361 24.7788 23.2353C24.7789 23.1345 24.7588 23.0348 24.7198 22.9419C24.6808 22.849 24.6236 22.7648 24.5516 22.6943ZM10.8767 18.3448C6.15807 18.3448 2.33292 14.5804 2.33292 9.93682C2.33292 5.29321 6.15807 1.52884 10.8767 1.52884C15.5953 1.52884 19.4204 5.29321 19.4204 9.93682C19.4204 14.5804 15.5953 18.3448 10.8767 18.3448Z" fill="white"/>
</g>
<defs>
<clipPath id="clip0_2034_5831">
<rect width="24" height="24" fill="white" transform="translate(0.77832)"/>
</clipPath>
</defs>
</svg>
