<svg width="456" height="287" viewBox="0 0 456 287" fill="none" xmlns="http://www.w3.org/2000/svg">
<g clip-path="url(#clip0_2029_1787)">
<path fill-rule="evenodd" clip-rule="evenodd" d="M240.937 125.035H242.586L248.151 133.689L253.922 125.035H255.571V139.252H253.922V128.126L248.151 136.574L242.586 128.126V139.252H240.937V125.035Z" fill="white"/>
<path d="M261.135 128.125H259.487V139.251H261.135V128.125Z" fill="white"/>
<path fill-rule="evenodd" clip-rule="evenodd" d="M266.906 129.773V137.603H269.998C272.677 137.603 274.12 135.955 274.12 133.688C274.12 131.422 272.471 129.773 269.998 129.773H266.906ZM275.975 133.688C275.975 136.779 273.914 139.045 269.998 139.045H265.051V128.125H269.998C273.708 128.125 275.975 130.598 275.975 133.688Z" fill="white"/>
<path d="M282.983 131.422H277.418V133.07H282.983V131.422Z" fill="white"/>
<path fill-rule="evenodd" clip-rule="evenodd" d="M294.524 133.689L291.433 127.302L288.341 133.689H294.524ZM290.608 125.035H292.051L299.059 139.252H297.204L295.349 135.337H287.517L285.662 139.252H283.807L290.608 125.035Z" fill="white"/>
<path fill-rule="evenodd" clip-rule="evenodd" d="M302.563 129.773H298.028V128.125H308.952V129.773H304.211V139.251H302.563V129.773Z" fill="white"/>
<path fill-rule="evenodd" clip-rule="evenodd" d="M310.601 128.125H312.456V137.603H320.494V139.251H310.601V128.125Z" fill="white"/>
<path fill-rule="evenodd" clip-rule="evenodd" d="M328.738 134.924L326.677 130.804L324.616 134.924H328.738ZM326.059 128.125H327.089L332.654 139.045H330.799L329.356 136.161H323.585L322.143 139.045H320.288L326.059 128.125Z" fill="white"/>
<path fill-rule="evenodd" clip-rule="evenodd" d="M334.303 128.125H335.333L342.341 135.955V128.125H343.99V139.251H342.959L335.952 131.422V139.251H334.303V128.125Z" fill="white"/>
<path fill-rule="evenodd" clip-rule="evenodd" d="M350.379 129.773H345.639V128.125H356.768V129.773H352.028V139.251H350.379V129.773Z" fill="white"/>
<path d="M360.066 128.125H358.417V139.251H360.066V128.125Z" fill="white"/>
<path fill-rule="evenodd" clip-rule="evenodd" d="M369.547 139.458C365.631 139.458 362.951 136.986 362.951 133.689C362.951 130.392 365.631 127.92 369.547 127.92C372.02 127.92 374.081 128.95 375.112 130.599L373.669 131.629C372.844 130.392 371.196 129.774 369.341 129.774C366.455 129.774 364.394 131.629 364.394 133.895C364.394 136.368 366.455 138.016 369.341 138.016C371.402 138.016 372.844 137.192 373.875 135.544L375.318 136.574C374.287 138.428 372.226 139.458 369.547 139.458Z" fill="white"/>
<path fill-rule="evenodd" clip-rule="evenodd" d="M399.226 132.041C399.226 128.744 396.959 126.271 393.661 126.271C390.57 126.271 388.096 128.744 388.096 132.041C388.096 135.337 390.57 137.81 393.661 137.81C396.959 137.81 399.226 135.543 399.226 132.041ZM386.447 132.041C386.447 127.714 389.539 124.623 393.867 124.623C398.195 124.623 401.287 127.714 401.287 132.041C401.287 136.368 398.195 139.458 393.867 139.458C389.539 139.664 386.447 136.368 386.447 132.041Z" fill="white"/>
<path fill-rule="evenodd" clip-rule="evenodd" d="M409.737 139.458C405.821 139.458 403.142 136.986 403.142 133.689C403.142 130.392 405.821 127.92 409.737 127.92C412.211 127.92 414.272 128.95 415.302 130.599L413.859 131.629C413.035 130.392 411.386 129.774 409.531 129.774C406.646 129.774 404.585 131.629 404.585 133.895C404.585 136.368 406.646 138.016 409.531 138.016C411.592 138.016 413.035 137.192 414.066 135.544L415.508 136.574C414.272 138.428 412.211 139.458 409.737 139.458Z" fill="white"/>
<path fill-rule="evenodd" clip-rule="evenodd" d="M418.394 128.125H428.905V129.773H420.249V132.452H425.814V134.1H420.249V137.603H429.317V139.251H418.394V128.125Z" fill="white"/>
<path fill-rule="evenodd" clip-rule="evenodd" d="M437.974 134.924L435.913 130.804L433.852 134.924H437.974ZM435.294 128.125H436.325L441.89 139.045H440.035L438.592 136.161H432.821L431.378 139.045H429.523L435.294 128.125Z" fill="white"/>
<path fill-rule="evenodd" clip-rule="evenodd" d="M443.539 128.125H444.569L451.577 135.955V128.125H453.226V139.251H452.195L445.187 131.422V139.251H443.539V128.125Z" fill="white"/>
<path fill-rule="evenodd" clip-rule="evenodd" d="M241.968 147.083V158.003H246.296C250.006 158.003 251.861 155.737 251.861 152.646C251.861 149.555 249.8 147.083 246.296 147.083H241.968ZM253.716 152.44C253.716 156.561 251.036 159.446 246.296 159.446H240.113V145.229H246.296C251.036 145.435 253.716 148.525 253.716 152.44Z" fill="white"/>
<path fill-rule="evenodd" clip-rule="evenodd" d="M262.784 155.325L260.723 151.204L258.662 155.325H262.784ZM260.105 148.525H261.135L266.7 159.446H264.845L263.403 156.561H257.632L256.189 159.446H254.334L260.105 148.525Z" fill="white"/>
<path fill-rule="evenodd" clip-rule="evenodd" d="M270.204 150.174H265.464V148.525H276.387V150.174H271.853V159.652H270.204V150.174Z" fill="white"/>
<path fill-rule="evenodd" clip-rule="evenodd" d="M283.395 155.325L281.334 151.204L279.067 155.325H283.395ZM280.715 148.525H281.746L287.311 159.446H285.456L284.013 156.561H278.242L276.799 159.446H274.944L280.715 148.525Z" fill="white"/>
<path fill-rule="evenodd" clip-rule="evenodd" d="M306.066 151.823C307.921 151.823 308.746 150.999 308.746 149.556C308.746 148.114 307.921 147.084 306.066 147.084H299.677V151.823H306.066ZM298.028 145.436H306.272C309.158 145.436 310.807 146.878 310.807 149.35C310.807 151.823 309.158 153.471 306.685 153.471H300.089V159.653H298.234V145.436H298.028Z" fill="white"/>
<path fill-rule="evenodd" clip-rule="evenodd" d="M323.585 154.09C323.585 151.823 321.73 149.969 318.639 149.969C315.547 149.969 313.692 151.823 313.692 154.09C313.692 156.356 315.547 158.21 318.639 158.21C321.524 158.417 323.585 156.562 323.585 154.09ZM311.837 154.09C311.837 150.793 314.517 148.32 318.639 148.32C322.761 148.32 325.44 150.793 325.44 154.09C325.44 157.386 322.761 159.859 318.639 159.859C314.517 159.859 311.837 157.386 311.837 154.09Z" fill="white"/>
<path fill-rule="evenodd" clip-rule="evenodd" d="M335.746 153.265C336.982 153.265 337.6 152.647 337.6 151.823C337.6 150.793 336.982 150.381 335.746 150.381H329.768V153.265H335.746ZM329.768 159.653H328.12V148.732H335.746C338.013 148.732 339.249 149.969 339.249 151.823C339.249 153.265 338.219 154.708 336.57 154.914L339.662 159.653H337.807L334.715 154.914H329.768V159.653Z" fill="white"/>
<path fill-rule="evenodd" clip-rule="evenodd" d="M345.02 150.174H340.28V148.525H351.41V150.174H346.669V159.652H345.02V150.174Z" fill="white"/>
<path fill-rule="evenodd" clip-rule="evenodd" d="M358.211 155.325L356.15 151.204L353.883 155.325H358.211ZM355.532 148.525H356.562L362.127 159.446H360.272L358.829 156.561H353.058L351.616 159.446H349.761L355.532 148.525Z" fill="white"/>
<path fill-rule="evenodd" clip-rule="evenodd" d="M363.982 148.525H365.631V158.003H373.875V159.652H363.982V148.525Z" fill="white"/>
<path fill-rule="evenodd" clip-rule="evenodd" d="M0.206116 121.945H5.15264L22.2594 147.907L39.5722 121.945H44.5188V164.391H39.16V131.217L22.2594 156.355L5.56485 131.217V164.391H0.206116V121.945Z" fill="white"/>
<path fill-rule="evenodd" clip-rule="evenodd" d="M78.9383 147.907L69.4575 129.157L60.1828 147.907H78.9383ZM67.3964 121.945H71.7246L92.7474 164.391H86.9764L81.2055 152.852H57.9156L52.3507 164.391H46.5798L67.3964 121.945Z" fill="white"/>
<path fill-rule="evenodd" clip-rule="evenodd" d="M119.335 140.901C124.694 140.901 127.373 138.429 127.373 133.896C127.373 129.569 124.694 126.89 119.541 126.89H100.579V140.901H119.335ZM95.2206 121.945H119.541C127.991 121.945 132.938 126.272 132.938 133.69C132.938 139.665 129.022 144.61 122.839 145.64L133.556 164.391H127.785L117.068 145.846H100.579V164.391H95.2206V121.945Z" fill="white"/>
<path fill-rule="evenodd" clip-rule="evenodd" d="M176.838 153.883C172.922 161.301 165.915 165.422 157.258 165.422C144.48 165.422 135.205 156.15 135.205 143.169C135.205 130.188 144.48 120.916 157.258 120.916C165.09 120.916 171.892 124.625 175.808 130.806L171.48 133.897C168.8 128.746 163.442 125.861 157.258 125.861C147.778 125.861 140.77 133.073 140.77 143.169C140.77 153.265 147.778 160.477 157.258 160.477C163.854 160.477 169.212 157.18 172.51 150.792L176.838 153.883Z" fill="white"/>
<path fill-rule="evenodd" clip-rule="evenodd" d="M223.006 143.168C223.006 130.805 212.907 120.709 200.54 120.709C188.174 120.709 178.075 130.805 178.075 143.168C178.075 153.264 184.67 161.712 193.945 164.596L200.747 181.698L207.96 164.39C216.617 161.3 223.006 152.852 223.006 143.168ZM200.747 159.239C191.678 159.239 184.464 152.028 184.464 142.962C184.464 133.896 191.678 126.684 200.747 126.684C209.815 126.684 217.029 133.896 217.029 142.962C217.029 151.822 209.609 159.239 200.747 159.239Z" fill="white"/>
</g>
<defs>
<clipPath id="clip0_2029_1787">
<rect width="453.432" height="78.297" fill="white" transform="translate(0 104.02)"/>
</clipPath>
</defs>
</svg>
