<svg width="18" height="25" viewBox="0 0 18 25" fill="none" xmlns="http://www.w3.org/2000/svg">
<path fill-rule="evenodd" clip-rule="evenodd" d="M17.8567 8.92836C17.8567 12.8993 15.2644 16.2647 11.6799 17.4247H11.808L9.04787 24.121L6.16776 17.4247H6.17686C2.59228 16.2647 0 12.8993 0 8.92836C0 3.99736 3.99736 0 8.92836 0C13.8594 0 17.8567 3.99736 17.8567 8.92836ZM8.92955 15.8884C12.6941 15.8884 15.7458 12.8367 15.7458 9.07213C15.7458 5.30761 12.6941 2.25586 8.92955 2.25586C5.16503 2.25586 2.11328 5.30761 2.11328 9.07213C2.11328 12.8367 5.16503 15.8884 8.92955 15.8884Z" fill="#00A564"/>
</svg>
