<svg viewBox="0 0 54 54" fill="none" xmlns="http://www.w3.org/2000/svg">
<path d="M27 54C12.1123 54 0 41.8883 0 27C0 12.1117 12.1123 0 27 0C41.8877 0 54 12.1117 54 27C54 41.8883 41.8877 54 27 54Z" fill="#22408F"/>
<path d="M28.6607 26.9998L37.2221 18.4385C37.6806 17.9799 37.6806 17.237 37.2221 16.7785C36.7635 16.3199 36.0206 16.3199 35.5621 16.7785L27.0008 25.3398L18.4394 16.7785C17.9809 16.3199 17.238 16.3199 16.7795 16.7785C16.3209 17.237 16.3209 17.9799 16.7795 18.4385L25.3408 26.9998L16.7795 35.5611C16.3209 36.0197 16.3209 36.7625 16.7795 37.2211C17.0087 37.4504 17.3091 37.565 17.6095 37.565C17.9098 37.565 18.2102 37.4504 18.4394 37.2211L27.0008 28.6598L35.5621 37.2211C35.7913 37.4504 36.0917 37.565 36.3921 37.565C36.6924 37.565 36.9928 37.4504 37.2221 37.2211C37.6806 36.7625 37.6806 36.0197 37.2221 35.5611L28.6607 26.9998Z" fill="white"/>
</svg>
