<svg width="16" height="17" viewBox="0 0 16 17" fill="none" xmlns="http://www.w3.org/2000/svg">
<g clip-path="url(#clip0_2030_832)">
<path d="M12.4206 1.45377H11.8835V0.849609C11.8835 0.504422 11.6318 0.224609 11.3212 0.224609C11.0107 0.224609 10.759 0.504422 10.759 0.849609V1.45377H5.24255V0.849609C5.24255 0.504422 4.99083 0.224609 4.6803 0.224609C4.36977 0.224609 4.11805 0.504422 4.11805 0.849609V1.45377H3.58096C2.04796 1.45377 0.800781 2.84014 0.800781 4.5442V13.1341C0.800781 14.8382 2.04796 16.2246 3.58096 16.2246H12.4206C13.9536 16.2246 15.2008 14.8382 15.2008 13.1341V4.5442C15.2008 2.84014 13.9536 1.45377 12.4206 1.45377ZM3.58096 2.70377H4.11805V3.92252C4.11805 4.2677 4.36977 4.54752 4.6803 4.54752C4.99083 4.54752 5.24255 4.2677 5.24255 3.92252V2.70377H10.759V3.92252C10.759 4.2677 11.0107 4.54752 11.3213 4.54752C11.6318 4.54752 11.8835 4.2677 11.8835 3.92252V2.70377H12.4206C13.3335 2.70377 14.0763 3.52939 14.0763 4.5442V5.14127H1.92528V4.5442C1.92528 3.52939 2.66801 2.70377 3.58096 2.70377ZM12.4206 14.9746H3.58096C2.66801 14.9746 1.92528 14.149 1.92528 13.1341V6.39127H14.0763V13.1341C14.0763 14.149 13.3335 14.9746 12.4206 14.9746ZM5.79544 8.84961C5.79544 9.1948 5.54372 9.47461 5.23319 9.47461H4.12744C3.81691 9.47461 3.56519 9.1948 3.56519 8.84961C3.56519 8.50442 3.81691 8.22461 4.12744 8.22461H5.23319C5.54369 8.22461 5.79544 8.50442 5.79544 8.84961ZM12.4364 8.84961C12.4364 9.1948 12.1847 9.47461 11.8741 9.47461H10.7684C10.4579 9.47461 10.2061 9.1948 10.2061 8.84961C10.2061 8.50442 10.4579 8.22461 10.7684 8.22461H11.8741C12.1846 8.22461 12.4364 8.50442 12.4364 8.84961ZM9.11271 8.84961C9.11271 9.1948 8.86099 9.47461 8.55046 9.47461H7.44472C7.13419 9.47461 6.88247 9.1948 6.88247 8.84961C6.88247 8.50442 7.13419 8.22461 7.44472 8.22461H8.55046C8.86097 8.22461 9.11271 8.50442 9.11271 8.84961ZM5.79544 12.5371C5.79544 12.8823 5.54372 13.1621 5.23319 13.1621H4.12744C3.81691 13.1621 3.56519 12.8823 3.56519 12.5371C3.56519 12.1919 3.81691 11.9121 4.12744 11.9121H5.23319C5.54369 11.9121 5.79544 12.1919 5.79544 12.5371ZM12.4364 12.5371C12.4364 12.8823 12.1847 13.1621 11.8741 13.1621H10.7684C10.4579 13.1621 10.2061 12.8823 10.2061 12.5371C10.2061 12.1919 10.4579 11.9121 10.7684 11.9121H11.8741C12.1846 11.9121 12.4364 12.1919 12.4364 12.5371ZM9.11271 12.5371C9.11271 12.8823 8.86099 13.1621 8.55046 13.1621H7.44472C7.13419 13.1621 6.88247 12.8823 6.88247 12.5371C6.88247 12.1919 7.13419 11.9121 7.44472 11.9121H8.55046C8.86097 11.9121 9.11271 12.1919 9.11271 12.5371Z" fill="white"/>
</g>
<defs>
<clipPath id="clip0_2030_832">
<rect width="16" height="16" fill="white" transform="translate(0 0.224609)"/>
</clipPath>
</defs>
</svg>
