<svg width="30" height="22" viewBox="0 0 30 22" fill="none" xmlns="http://www.w3.org/2000/svg">
<g clip-path="url(#clip0_2045_10646)">
<path d="M4.30831 17.1489C4.28011 17.1489 4.25131 17.1471 4.22191 17.1429C2.85504 16.9464 1.53279 16.5136 0.314309 15.8638C0.177396 15.7869 0.0760418 15.6594 0.031962 15.5087C-0.0121178 15.358 0.00458258 15.196 0.0784853 15.0575C0.152388 14.9189 0.277615 14.8148 0.427336 14.7675C0.577057 14.7202 0.739363 14.7334 0.87948 14.8042C1.97476 15.3892 3.16375 15.7784 4.3929 15.9544C4.54248 15.9767 4.67811 16.0546 4.77273 16.1726C4.86734 16.2906 4.91396 16.4399 4.90328 16.5908C4.8926 16.7416 4.82539 16.8829 4.7151 16.9864C4.6048 17.0898 4.45953 17.1479 4.30831 17.1489ZM25.684 17.1489C25.5323 17.1489 25.3861 17.0914 25.2751 16.9879C25.164 16.8844 25.0963 16.7427 25.0856 16.5913C25.0749 16.44 25.1219 16.2901 25.2173 16.172C25.3126 16.0539 25.4492 15.9764 25.5994 15.955C26.8286 15.7791 28.0176 15.3899 29.1129 14.8048C29.2524 14.7391 29.4119 14.7295 29.5584 14.778C29.7048 14.8266 29.8269 14.9296 29.8996 15.0657C29.9722 15.2018 29.9897 15.3607 29.9484 15.5093C29.9072 15.658 29.8104 15.7851 29.678 15.8644C28.4596 16.5142 27.1373 16.947 25.7704 17.1435C25.7418 17.1471 25.7129 17.1489 25.684 17.1489ZM19.4084 11.763C19.3002 11.7633 19.1939 11.7343 19.1009 11.6791C19.0079 11.6238 18.9316 11.5444 18.8801 11.4493C18.8285 11.3542 18.8038 11.2468 18.8084 11.1388C18.813 11.0307 18.8468 10.9258 18.9062 10.8354C19.322 10.1951 19.8914 9.66911 20.5627 9.30535C21.2339 8.9416 21.9855 8.75168 22.749 8.75294C22.9081 8.75294 23.0607 8.81615 23.1732 8.92866C23.2857 9.04118 23.349 9.19378 23.349 9.35291C23.349 9.51203 23.2857 9.66463 23.1732 9.77715C23.0607 9.88966 22.9081 9.95288 22.749 9.95288C22.1853 9.95178 21.6302 10.0919 21.1346 10.3605C20.639 10.6292 20.2186 11.0177 19.9117 11.4906C19.8573 11.5745 19.7827 11.6433 19.6947 11.6909C19.6068 11.7385 19.5083 11.7633 19.4084 11.763Z" fill="white"/>
<path d="M24.0834 9.95361C21.9565 9.95361 20.1602 8.1573 20.1602 6.031C20.1602 3.90471 21.9565 2.1084 24.0834 2.1084C26.2097 2.1084 28.006 3.90471 28.006 6.031C28.006 8.1573 26.2097 9.95361 24.0834 9.95361ZM24.0834 3.30834C22.6074 3.30834 21.3601 4.55508 21.3601 6.031C21.3601 7.50693 22.6074 8.75367 24.0834 8.75367C25.5593 8.75367 26.806 7.50693 26.806 6.031C26.806 4.55508 25.5593 3.30834 24.0834 3.30834Z" fill="white"/>
<path d="M29.396 13.9412C29.2368 13.9412 29.0842 13.878 28.9717 13.7655C28.8592 13.653 28.796 13.5004 28.796 13.3413C28.7949 12.4432 28.4376 11.5823 27.8026 10.9472C27.1676 10.3122 26.3066 9.95496 25.4086 9.95385C25.2494 9.95385 25.0968 9.89064 24.9843 9.77812C24.8718 9.6656 24.8086 9.513 24.8086 9.35388C24.8086 9.19475 24.8718 9.04215 24.9843 8.92963C25.0968 8.81712 25.2494 8.75391 25.4086 8.75391C27.938 8.75391 29.9959 10.8124 29.9959 13.3413C29.9959 13.5004 29.9327 13.653 29.8202 13.7655C29.7077 13.878 29.5551 13.9412 29.396 13.9412Z" fill="white"/>
<path d="M25.413 9.95385H22.7545C22.5954 9.95385 22.4428 9.89063 22.3303 9.77812C22.2178 9.6656 22.1546 9.513 22.1546 9.35388C22.1546 9.19475 22.2178 9.04215 22.3303 8.92963C22.4428 8.81712 22.5954 8.75391 22.7545 8.75391H25.413C25.5721 8.75391 25.7247 8.81712 25.8372 8.92963C25.9498 9.04215 26.013 9.19475 26.013 9.35388C26.013 9.513 25.9498 9.6656 25.8372 9.77812C25.7247 9.89063 25.5721 9.95385 25.413 9.95385ZM29.4004 15.9355C29.2413 15.9355 29.0887 15.8723 28.9762 15.7598C28.8636 15.6473 28.8004 15.4947 28.8004 15.3356V13.3419C28.8004 13.1828 28.8636 13.0302 28.9762 12.9176C29.0887 12.8051 29.2413 12.7419 29.4004 12.7419C29.5595 12.7419 29.7121 12.8051 29.8246 12.9176C29.9372 13.0302 30.0004 13.1828 30.0004 13.3419V15.3356C30.0004 15.4947 29.9372 15.6473 29.8246 15.7598C29.7121 15.8723 29.5595 15.9355 29.4004 15.9355ZM7.91247 16.3783C7.75335 16.3783 7.60074 16.3151 7.48823 16.2026C7.37571 16.0901 7.3125 15.9375 7.3125 15.7784C7.3125 12.5157 9.96677 9.86205 13.2288 9.86205C13.3879 9.86205 13.5405 9.92526 13.653 10.0378C13.7656 10.1503 13.8288 10.3029 13.8288 10.462C13.8288 10.6211 13.7656 10.7737 13.653 10.8863C13.5405 10.9988 13.3879 11.062 13.2288 11.062C10.6279 11.062 8.51244 13.1775 8.51244 15.7784C8.51244 15.9375 8.44923 16.0901 8.33671 16.2026C8.2242 16.3151 8.07159 16.3783 7.91247 16.3783Z" fill="white"/>
<path d="M16.7696 11.062H13.225C13.0659 11.062 12.9133 10.9988 12.8008 10.8863C12.6882 10.7738 12.625 10.6211 12.625 10.462C12.625 10.3029 12.6882 10.1503 12.8008 10.0378C12.9133 9.92527 13.0659 9.86206 13.225 9.86206H16.7696C16.9287 9.86206 17.0814 9.92527 17.1939 10.0378C17.3064 10.1503 17.3696 10.3029 17.3696 10.462C17.3696 10.6211 17.3064 10.7738 17.1939 10.8863C17.0814 10.9988 16.9287 11.062 16.7696 11.062ZM10.5851 11.764C10.4852 11.7641 10.3868 11.7392 10.2989 11.6917C10.211 11.6441 10.1363 11.5753 10.0818 11.4916C9.77481 11.0188 9.35436 10.6303 8.85877 10.3617C8.36317 10.0931 7.8082 9.95292 7.2445 9.95385C7.08538 9.95385 6.93278 9.89064 6.82026 9.77813C6.70774 9.66561 6.64453 9.51301 6.64453 9.35388C6.64453 9.19476 6.70774 9.04216 6.82026 8.92964C6.93278 8.81712 7.08538 8.75391 7.2445 8.75391C8.00798 8.75255 8.75964 8.94242 9.43089 9.30618C10.1021 9.66995 10.6716 10.196 11.0873 10.8364C11.1463 10.9269 11.1797 11.0317 11.1841 11.1396C11.1885 11.2475 11.1637 11.3546 11.1123 11.4496C11.0608 11.5446 10.9847 11.624 10.8919 11.6793C10.7992 11.7346 10.6932 11.7639 10.5851 11.764ZM7.90867 19.0368C7.74955 19.0368 7.59694 18.9736 7.48443 18.8611C7.37191 18.7486 7.3087 18.5959 7.3087 18.4368V15.7784C7.3087 15.6192 7.37191 15.4666 7.48443 15.3541C7.59694 15.2416 7.74955 15.1784 7.90867 15.1784C8.06779 15.1784 8.2204 15.2416 8.33291 15.3541C8.44543 15.4666 8.50864 15.6192 8.50864 15.7784V18.4368C8.50864 18.5959 8.44543 18.7486 8.33291 18.8611C8.2204 18.9736 8.06779 19.0368 7.90867 19.0368Z" fill="white"/>
<path d="M14.9995 11.0615C12.2726 11.0615 9.96875 8.75761 9.96875 6.03075C9.96875 3.30388 12.2726 1 14.9995 1C17.7264 1 20.0302 3.30388 20.0302 6.03075C20.0302 8.75761 17.7264 11.0615 14.9995 11.0615ZM14.9995 2.19994C12.923 2.19994 11.1687 3.95425 11.1687 6.03075C11.1687 8.10724 12.923 9.86156 14.9995 9.86156C17.076 9.86156 18.8303 8.10724 18.8303 6.03075C18.8303 3.95425 17.076 2.19994 14.9995 2.19994Z" fill="white"/>
<path d="M22.0882 16.3776C21.9291 16.3776 21.7765 16.3144 21.6639 16.2019C21.5514 16.0894 21.4882 15.9368 21.4882 15.7776C21.4882 13.1768 19.3727 11.0613 16.7718 11.0613C16.6127 11.0613 16.4601 10.9981 16.3476 10.8855C16.2351 10.773 16.1719 10.6204 16.1719 10.4613C16.1719 10.3022 16.2351 10.1496 16.3476 10.0371C16.4601 9.92454 16.6127 9.86133 16.7718 9.86133C20.0345 9.86133 22.6881 12.5156 22.6881 15.7776C22.6881 15.9368 22.6249 16.0894 22.5124 16.2019C22.3999 16.3144 22.2473 16.3776 22.0882 16.3776Z" fill="white"/>
<path d="M22.0883 19.0361C21.9291 19.0361 21.7765 18.9729 21.664 18.8604C21.5515 18.7479 21.4883 18.5953 21.4883 18.4362V15.7777C21.4883 15.6186 21.5515 15.466 21.664 15.3535C21.7765 15.2409 21.9291 15.1777 22.0883 15.1777C22.2474 15.1777 22.4 15.2409 22.5125 15.3535C22.625 15.466 22.6882 15.6186 22.6882 15.7777V18.4362C22.6882 18.5953 22.625 18.7479 22.5125 18.8604C22.4 18.9729 22.2474 19.0361 22.0883 19.0361Z" fill="white"/>
<path d="M15.0016 20.8125C12.4698 20.8125 9.9385 20.1969 7.63041 18.9664C7.49806 18.8871 7.40126 18.76 7.36003 18.6113C7.3188 18.4626 7.33629 18.3038 7.4089 18.1677C7.48151 18.0316 7.60367 17.9286 7.7501 17.88C7.89653 17.8314 8.05603 17.841 8.19558 17.9068C10.2897 19.0262 12.6275 19.6118 15.0019 19.6118C17.3764 19.6118 19.7142 19.0262 21.8083 17.9068C21.9479 17.841 22.1074 17.8314 22.2538 17.88C22.4002 17.9286 22.5224 18.0316 22.595 18.1677C22.6676 18.3038 22.6851 18.4626 22.6439 18.6113C22.6026 18.76 22.5058 18.8871 22.3735 18.9664C20.1049 20.1774 17.5732 20.8114 15.0016 20.8125ZM5.9187 9.9536C3.7924 9.9536 1.99609 8.15729 1.99609 6.031C1.99609 3.90471 3.7924 2.1084 5.9187 2.1084C8.04499 2.1084 9.8413 3.90471 9.8413 6.031C9.8413 8.15729 8.04499 9.9536 5.9187 9.9536ZM5.9187 3.30834C4.44277 3.30834 3.19603 4.55508 3.19603 6.031C3.19603 7.50693 4.44277 8.75366 5.9187 8.75366C7.39462 8.75366 8.64136 7.50693 8.64136 6.031C8.64136 4.55508 7.39462 3.30834 5.9187 3.30834Z" fill="white"/>
<path d="M0.59997 13.9412C0.440848 13.9412 0.288243 13.878 0.175727 13.7655C0.0632111 13.653 0 13.5004 0 13.3413C0 10.8118 2.0585 8.75391 4.58737 8.75391C4.74649 8.75391 4.8991 8.81712 5.01161 8.92963C5.12413 9.04215 5.18734 9.19475 5.18734 9.35388C5.18734 9.513 5.12413 9.6656 5.01161 9.77812C4.8991 9.89064 4.74649 9.95385 4.58737 9.95385C3.68921 9.95464 2.82807 10.3118 2.19297 10.9469C1.55788 11.582 1.20073 12.4431 1.19994 13.3413C1.19994 13.5004 1.13673 13.653 1.02421 13.7655C0.911696 13.878 0.759092 13.9412 0.59997 13.9412Z" fill="white"/>
<path d="M7.24584 9.95287H4.58737C4.42825 9.95287 4.27564 9.88966 4.16313 9.77714C4.05061 9.66463 3.9874 9.51202 3.9874 9.3529C3.9874 9.19378 4.05061 9.04117 4.16313 8.92866C4.27564 8.81614 4.42825 8.75293 4.58737 8.75293H7.24584C7.40496 8.75293 7.55756 8.81614 7.67008 8.92866C7.7826 9.04117 7.84581 9.19378 7.84581 9.3529C7.84581 9.51202 7.7826 9.66463 7.67008 9.77714C7.55756 9.88966 7.40496 9.95287 7.24584 9.95287ZM0.59997 15.9346C0.440848 15.9346 0.288243 15.8714 0.175727 15.7588C0.0632111 15.6463 0 15.4937 0 15.3346V13.3409C0 13.1818 0.0632111 13.0292 0.175727 12.9167C0.288243 12.8041 0.440848 12.7409 0.59997 12.7409C0.759092 12.7409 0.911696 12.8041 1.02421 12.9167C1.13673 13.0292 1.19994 13.1818 1.19994 13.3409V15.3346C1.19994 15.4937 1.13673 15.6463 1.02421 15.7588C0.911696 15.8714 0.759092 15.9346 0.59997 15.9346Z" fill="white"/>
</g>
<defs>
<clipPath id="clip0_2045_10646">
<rect width="30" height="21" fill="white" transform="translate(0 0.5)"/>
</clipPath>
</defs>
</svg>
