<svg width="21" height="22" viewBox="0 0 21 22" fill="none" xmlns="http://www.w3.org/2000/svg">
<path d="M15.0938 8.375V6.21594C15.092 5.04861 14.6275 3.92958 13.8021 3.10415C12.9767 2.27873 11.8576 1.81424 10.6903 1.8125H10.3097C9.14236 1.81424 8.02333 2.27873 7.1979 3.10415C6.37248 3.92958 5.90799 5.04861 5.90625 6.21594V8.375C5.38411 8.375 4.88335 8.58242 4.51413 8.95163C4.14492 9.32085 3.9375 9.8216 3.9375 10.3438V16.4469C3.93923 17.4384 4.33389 18.3889 5.03502 19.09C5.73615 19.7911 6.68658 20.1858 7.67812 20.1875H13.3219C14.3134 20.1858 15.2639 19.7911 15.965 19.09C16.6661 18.3889 17.0608 17.4384 17.0625 16.4469V10.3438C17.0625 9.8216 16.8551 9.32085 16.4859 8.95163C16.1167 8.58242 15.6159 8.375 15.0938 8.375ZM7.21875 6.21594C7.21875 5.39617 7.5444 4.60998 8.12406 4.03031C8.70373 3.45065 9.48992 3.125 10.3097 3.125H10.6903C11.5101 3.125 12.2963 3.45065 12.8759 4.03031C13.4556 4.60998 13.7812 5.39617 13.7812 6.21594V8.375H7.21875V6.21594ZM15.75 16.4469C15.75 17.0909 15.4942 17.7085 15.0388 18.1638C14.5835 18.6192 13.9659 18.875 13.3219 18.875H7.67812C7.03415 18.875 6.41654 18.6192 5.96118 18.1638C5.50582 17.7085 5.25 17.0909 5.25 16.4469V10.3438C5.25 10.1697 5.31914 10.0028 5.44221 9.87971C5.56528 9.75664 5.7322 9.6875 5.90625 9.6875H15.0938C15.2678 9.6875 15.4347 9.75664 15.5578 9.87971C15.6809 10.0028 15.75 10.1697 15.75 10.3438V16.4469Z" fill="#22408F"/>
<path d="M11.1563 14.0976V16.2501C11.1563 16.4241 11.0871 16.5911 10.964 16.7141C10.841 16.8372 10.674 16.9063 10.5 16.9063C10.326 16.9063 10.159 16.8372 10.036 16.7141C9.91289 16.5911 9.84375 16.4241 9.84375 16.2501V14.0976C9.59353 13.9531 9.39798 13.7301 9.28741 13.4632C9.17684 13.1963 9.15744 12.9003 9.23222 12.6212C9.307 12.3422 9.47178 12.0955 9.701 11.9197C9.93022 11.7438 10.2111 11.6484 10.5 11.6484C10.7889 11.6484 11.0698 11.7438 11.299 11.9197C11.5282 12.0955 11.693 12.3422 11.7678 12.6212C11.8426 12.9003 11.8232 13.1963 11.7126 13.4632C11.602 13.7301 11.4065 13.9531 11.1563 14.0976Z" fill="#22408F"/>
</svg>
