<svg width="20" height="20" viewBox="0 0 20 20" fill="none" xmlns="http://www.w3.org/2000/svg">
<path d="M15.5248 1.53645H14.8534V0.78125C14.8534 0.349766 14.5387 0 14.1506 0C13.7624 0 13.4477 0.349766 13.4477 0.78125V1.53645H6.55221V0.78125C6.55221 0.349766 6.23757 0 5.8494 0C5.46124 0 5.14659 0.349766 5.14659 0.78125V1.53645H4.47523C2.55898 1.53645 1 3.26941 1 5.39949V16.1369C1 18.267 2.55898 20 4.47523 20H15.5248C17.441 20 19 18.267 19 16.1369V5.39949C19 3.26941 17.441 1.53645 15.5248 1.53645ZM4.47523 3.09895H5.14659V4.62238C5.14659 5.05387 5.46124 5.40363 5.8494 5.40363C6.23757 5.40363 6.55221 5.05387 6.55221 4.62238V3.09895H13.4478V4.62238C13.4478 5.05387 13.7624 5.40363 14.1506 5.40363C14.5388 5.40363 14.8534 5.05387 14.8534 4.62238V3.09895H15.5248C16.666 3.09895 17.5944 4.13098 17.5944 5.39949V6.14582H2.40562V5.39949C2.40562 4.13098 3.33404 3.09895 4.47523 3.09895ZM15.5248 18.4375H4.47523C3.33404 18.4375 2.40562 17.4055 2.40562 16.1369V7.70832H17.5944V16.1369C17.5944 17.4055 16.666 18.4375 15.5248 18.4375ZM7.24333 10.7812C7.24333 11.2127 6.92868 11.5625 6.54051 11.5625H5.15833C4.77016 11.5625 4.45552 11.2127 4.45552 10.7812C4.45552 10.3498 4.77016 10 5.15833 10H6.54051C6.92864 10 7.24333 10.3498 7.24333 10.7812ZM15.5445 10.7812C15.5445 11.2127 15.2299 11.5625 14.8417 11.5625H13.4595C13.0714 11.5625 12.7567 11.2127 12.7567 10.7812C12.7567 10.3498 13.0714 10 13.4595 10H14.8417C15.2298 10 15.5445 10.3498 15.5445 10.7812ZM11.3899 10.7812C11.3899 11.2127 11.0753 11.5625 10.6871 11.5625H9.30492C8.91676 11.5625 8.60211 11.2127 8.60211 10.7812C8.60211 10.3498 8.91676 10 9.30492 10H10.6871C11.0752 10 11.3899 10.3498 11.3899 10.7812ZM7.24333 15.3906C7.24333 15.8221 6.92868 16.1719 6.54051 16.1719H5.15833C4.77016 16.1719 4.45552 15.8221 4.45552 15.3906C4.45552 14.9591 4.77016 14.6094 5.15833 14.6094H6.54051C6.92864 14.6094 7.24333 14.9591 7.24333 15.3906ZM15.5445 15.3906C15.5445 15.8221 15.2299 16.1719 14.8417 16.1719H13.4595C13.0714 16.1719 12.7567 15.8221 12.7567 15.3906C12.7567 14.9591 13.0714 14.6094 13.4595 14.6094H14.8417C15.2298 14.6094 15.5445 14.9591 15.5445 15.3906ZM11.3899 15.3906C11.3899 15.8221 11.0753 16.1719 10.6871 16.1719H9.30492C8.91676 16.1719 8.60211 15.8221 8.60211 15.3906C8.60211 14.9591 8.91676 14.6094 9.30492 14.6094H10.6871C11.0752 14.6094 11.3899 14.9591 11.3899 15.3906Z" fill="#00A564"/>
</svg>
