<svg width="19" height="20" viewBox="0 0 19 20" fill="none" xmlns="http://www.w3.org/2000/svg">
<path d="M12.3106 17H5.1486C4.57465 17 4.03509 16.7573 3.62929 16.3166C3.22349 15.8758 3 15.2899 3 14.6667V6.88888C3 6.26562 3.22352 5.67968 3.62932 5.23899C4.03512 4.7983 4.57467 4.55557 5.14862 4.55557H8.01343C8.409 4.55557 8.72964 4.90377 8.72964 5.33335C8.72964 5.76292 8.409 6.11113 8.01343 6.11113H5.1486C4.95728 6.11113 4.77745 6.19204 4.6422 6.33892C4.50695 6.4858 4.43242 6.68112 4.43242 6.88888V14.6667C4.43242 14.8744 4.50692 15.0697 4.6422 15.2166C4.77745 15.3635 4.95728 15.4444 5.1486 15.4444H12.3106C12.5019 15.4444 12.6818 15.3635 12.817 15.2166C12.9523 15.0697 13.0268 14.8744 13.0268 14.6666V11.5556C13.0268 11.126 13.3474 10.7778 13.743 10.7778C14.1386 10.7778 14.4592 11.126 14.4592 11.5556V14.6667C14.4592 15.2899 14.2357 15.8758 13.8299 16.3166C13.4241 16.7573 12.8845 17 12.3106 17ZM8.01343 12.3333C7.83012 12.3333 7.64683 12.2574 7.507 12.1055C7.22732 11.8018 7.22732 11.3093 7.507 11.0056L13.4463 4.55557H10.8782C10.4827 4.55557 10.1621 4.20736 10.1621 3.77778C10.1621 3.34821 10.4827 3 10.8782 3H15.1755C15.3625 2.99977 15.5421 3.07921 15.6758 3.22127L15.6758 3.22132L15.6772 3.22285L15.6776 3.22328L15.6787 3.22448L15.6795 3.22526L15.6803 3.22613L15.6818 3.22782L15.6834 3.2295L15.6841 3.23037L15.6849 3.23116C15.6854 3.23167 15.6859 3.23223 15.6864 3.23282L15.6878 3.23436L15.6878 3.23442C15.8186 3.37958 15.8918 3.57466 15.8916 3.77776V8.44442C15.8916 8.874 15.5709 9.2222 15.1753 9.2222C14.7798 9.2222 14.4591 8.874 14.4591 8.44442V5.65552L8.51973 12.1055C8.38 12.2574 8.19672 12.3333 8.01343 12.3333Z" fill="#22408F"/>
</svg>
