<svg width="100" height="100" viewBox="0 0 100 100" fill="none" xmlns="http://www.w3.org/2000/svg">
<g clip-path="url(#clip0_2034_3594)">
<path d="M100 50C100 67.2816 91.2326 82.5163 77.902 91.4979C74.7633 93.6116 71.3948 95.3623 67.8612 96.7163C62.3143 98.8367 56.2939 100 50 100C42.6857 100 35.7367 98.4286 29.4755 95.6082C26.1059 94.0876 22.915 92.1985 19.9612 89.9755C7.83877 80.851 0 66.3408 0 50C0 44.8633 0.773469 39.9082 2.21224 35.2449C8.50816 14.8327 27.5224 0 50 0C72.4775 0 91.4918 14.8327 97.7877 35.2449C99.2265 39.9082 100 44.8633 100 50Z" fill="#55D485"/>
<path d="M74.9314 60.2444C82.0624 60.2444 87.8432 57.863 87.8432 54.9254C87.8432 51.9878 82.0624 49.6064 74.9314 49.6064C67.8004 49.6064 62.0195 51.9878 62.0195 54.9254C62.0195 57.863 67.8004 60.2444 74.9314 60.2444Z" fill="#00A564"/>
<path d="M93.384 62.157C93.1945 63.1644 92.7457 64.1009 92.0289 64.8387C91.3308 65.5572 90.4587 66.0854 89.5528 66.5001C87.5173 67.4319 85.2828 67.8985 83.0842 68.2575C80.7904 68.6319 78.473 68.8603 76.1565 69.0393C73.8238 69.2195 71.4887 69.3664 69.152 69.4838C64.4881 69.7181 59.8214 69.8799 55.1585 70.1411C50.5518 70.3993 45.9349 70.7173 41.3753 71.4499C39.1861 71.8017 36.9832 72.2366 34.9038 73.0248C33.9691 73.3791 32.9143 73.8089 32.2136 74.5491C31.9567 74.8205 31.8722 75.0299 31.9638 75.3944C32.0745 75.8344 32.3063 76.2452 32.5483 76.6248C33.1351 77.5446 33.8865 78.3583 34.6618 79.1211C34.882 79.3373 35.1057 79.5497 35.333 79.7583C35.4589 79.8742 35.5267 79.9034 35.6865 79.9715C36.6296 80.3742 37.682 80.5273 38.6924 80.6564C39.8053 80.7987 40.9251 80.8819 42.0451 80.9452C44.0265 81.0568 46.0126 81.0936 47.9961 81.1507C52.4573 81.2795 56.9298 81.4391 61.344 82.1423C65.5818 82.8174 69.8812 84.0636 73.3898 86.6181C75.1163 87.875 76.6222 89.4358 77.7528 91.2515C77.7845 91.3026 77.8157 91.3538 77.8467 91.405C77.9047 91.5011 77.9034 91.4593 77.8406 91.5393C77.7763 91.6211 77.6214 91.6856 77.532 91.7448C76.8503 92.1947 76.1579 92.6281 75.4553 93.0446C73.5926 94.1479 71.6603 95.1293 69.6706 95.9826C69.1875 96.1895 68.7013 96.3889 68.212 96.5807C68.1189 96.6172 67.9085 96.736 67.8477 96.6836C67.7749 96.6207 67.7249 96.4132 67.6777 96.3244C67.5577 96.0974 67.4206 95.8797 67.2677 95.6734C66.0542 94.0381 64.0363 93.0552 62.1855 92.3362C60.1036 91.5275 57.9285 90.9879 55.7408 90.556C53.4791 90.1097 51.1987 89.7772 48.9126 89.4864C46.6649 89.2005 44.4138 88.9401 42.1679 88.6393C39.9671 88.3446 37.754 88.0172 35.6153 87.4054C33.8385 86.8972 32.0745 86.1564 30.7367 84.8458C30.4069 84.5228 30.1049 84.1644 29.804 83.8148C29.0881 82.9834 28.4104 82.1158 27.8104 81.1964C26.7163 79.5201 25.8375 77.6015 25.7981 75.5675C25.7557 73.3719 26.7928 71.3717 28.4883 70.007C30.1734 68.6507 32.3002 67.9148 34.3785 67.4148C36.5575 66.8905 38.7928 66.5924 41.0218 66.3805C45.6102 65.9446 50.2361 65.8736 54.842 65.8297C59.512 65.785 64.182 65.8064 68.8518 65.7307C73.464 65.656 78.1075 65.5387 82.6798 64.8787C83.8012 64.7168 84.9198 64.5179 86.0179 64.237C87.0412 63.9754 88.0857 63.6575 88.9938 63.1048C89.3834 62.8677 89.781 62.5766 90.001 62.1662C90.2071 61.7815 90.3065 61.277 90.2457 60.8448C90.1114 59.8885 89.1783 59.2352 88.4018 58.7962C87.4808 58.2754 86.4714 57.9213 85.4559 57.636C85.3687 57.6115 84.2512 57.2693 84.2143 57.3511C84.2143 57.1905 84.2847 57.0044 84.3177 56.8487C84.4708 56.1305 84.6263 55.4129 84.7843 54.6958C84.79 54.6697 84.8753 54.2021 84.8979 54.2021C84.901 54.2687 85.7991 54.4354 85.882 54.4564C86.8504 54.7009 87.8069 55.0089 88.7249 55.4032C90.4087 56.1264 92.0802 57.1942 92.9424 58.8703C93.4628 59.8801 93.6073 61.0454 93.384 62.157Z" fill="#00A564"/>
<path d="M97.7864 35.2449H2.21094C8.50686 14.8327 27.5211 0 49.9987 0C72.4762 0 91.4905 14.8327 97.7864 35.2449Z" fill="#ECF4FF"/>
<path d="M48.0236 63.4835L29.4767 95.6079C26.107 94.0874 22.9162 92.1983 19.9624 89.9753L4.6685 63.4835C-1.31313 53.1222 1.06034 41.1549 8.33177 33.5671C12.7726 28.9345 19.0399 25.9365 26.3461 25.9365C45.6154 25.9365 57.6583 46.7957 48.0236 63.4835Z" fill="#1569DC"/>
<path d="M39.3849 50.9667C39.3849 57.1081 35.1392 62.2569 29.4233 63.6406C28.4151 63.8861 27.3811 64.0095 26.3435 64.0081C19.1441 64.0081 13.3045 58.1688 13.3045 50.9667C13.3045 43.7671 19.1439 37.9277 26.3435 37.9277C27.4043 37.9277 28.4361 38.0539 29.4233 38.2953C35.1394 39.6792 39.3849 44.8279 39.3849 50.9667Z" fill="#ECF4FF"/>
<path d="M39.3855 50.9671C39.3855 57.1086 35.1397 62.2573 29.4238 63.641C23.7079 62.2573 19.4648 57.1083 19.4648 50.9671C19.4648 44.8283 23.7079 39.6796 29.4238 38.2959C35.1399 39.6796 39.3855 44.8283 39.3855 50.9671Z" fill="white"/>
<path d="M74.9296 54.9255L90.7854 27.4626C97.8323 15.2569 89.0237 0 74.9296 0C60.8358 0 52.027 15.2571 59.0739 27.4626L74.9296 54.9255Z" fill="#1569DC"/>
<path d="M84.4702 18.3077C84.4702 22.7997 81.3649 26.5656 77.1841 27.5777C76.4467 27.7572 75.6904 27.8475 74.9315 27.8464C69.6656 27.8464 65.3945 23.5754 65.3945 18.3074C65.3945 13.0415 69.6656 8.77051 74.9315 8.77051C75.7074 8.77051 76.4621 8.86275 77.1841 9.03928C81.3649 10.0515 84.4702 13.8177 84.4702 18.3077Z" fill="#ECF4FF"/>
<path d="M84.4688 18.3082C84.4688 22.8002 81.3635 26.5662 77.1827 27.5782C73.0018 26.5662 69.8984 22.8 69.8984 18.3082C69.8984 13.8182 73.0018 10.0521 77.1827 9.04004C81.3635 10.0521 84.4688 13.8182 84.4688 18.3082Z" fill="white"/>
</g>
<defs>
<clipPath id="clip0_2034_3594">
<rect width="100" height="100" fill="white"/>
</clipPath>
</defs>
</svg>
