<svg width="100" height="100" viewBox="0 0 100 100" fill="none" xmlns="http://www.w3.org/2000/svg">
<circle cx="50" cy="50" r="50" fill="#D7F3FF"/>
<path fill-rule="evenodd" clip-rule="evenodd" d="M64.2266 40.8096H71.3787V69.7717H64.2266V40.8096Z" fill="#F5F6F6"/>
<path fill-rule="evenodd" clip-rule="evenodd" d="M73.7212 35.4005V40.5113C73.7212 40.8906 73.436 41.1978 73.0841 41.1978H62.5159C62.1641 41.1978 61.8789 40.8904 61.8789 40.5113V35.4005C61.8789 35.0213 62.1641 34.7139 62.5159 34.7139H73.0841C73.436 34.7139 73.7212 35.0213 73.7212 35.4005ZM61.8791 75.262V70.1512C61.8791 69.772 62.1642 69.4647 62.5161 69.4647H73.0843C73.4362 69.4647 73.7213 69.7721 73.7213 70.1512V75.262C73.7213 75.6413 73.4362 75.9485 73.0843 75.9485H62.5161C62.1642 75.9487 61.8791 75.6413 61.8791 75.262Z" fill="#A9B7C7"/>
<path fill-rule="evenodd" clip-rule="evenodd" d="M46.4609 40.8096H53.6131V69.7717H46.4609V40.8096Z" fill="#F5F6F6"/>
<path fill-rule="evenodd" clip-rule="evenodd" d="M55.9596 35.4005V40.5113C55.9596 40.8906 55.6745 41.1978 55.3226 41.1978H44.7544C44.4025 41.1978 44.1174 40.8904 44.1174 40.5113V35.4005C44.1174 35.0213 44.4025 34.7139 44.7544 34.7139H55.3226C55.6745 34.7139 55.9596 35.0213 55.9596 35.4005ZM44.1175 75.262V70.1512C44.1175 69.772 44.4027 69.4647 44.7546 69.4647H55.3227C55.6746 69.4647 55.9598 69.7721 55.9598 70.1512V75.262C55.9598 75.6413 55.6746 75.9485 55.3227 75.9485H44.7546C44.4027 75.9487 44.1175 75.6413 44.1175 75.262Z" fill="#A9B7C7"/>
<path fill-rule="evenodd" clip-rule="evenodd" d="M28.6992 40.8096H35.8513V69.7717H28.6992V40.8096Z" fill="#F5F6F6"/>
<path fill-rule="evenodd" clip-rule="evenodd" d="M38.1977 35.4005V40.5113C38.1977 40.8906 37.9126 41.1978 37.5607 41.1978H26.9925C26.6406 41.1978 26.3555 40.8904 26.3555 40.5113V35.4005C26.3555 35.0213 26.6406 34.7139 26.9925 34.7139H37.5607C37.9126 34.7139 38.1977 35.0213 38.1977 35.4005ZM26.3555 75.262V70.1512C26.3555 69.772 26.6406 69.4647 26.9925 69.4647H37.5607C37.9126 69.4647 38.1977 69.7721 38.1977 70.1512V75.262C38.1977 75.6413 37.9126 75.9485 37.5607 75.9485H26.9925C26.6408 75.9487 26.3555 75.6413 26.3555 75.262Z" fill="#A9B7C7"/>
<path fill-rule="evenodd" clip-rule="evenodd" d="M21.5664 36.658H78.5108V32.3198L50.0386 22.1914L21.5664 32.3198V36.658Z" fill="#7D9AC7"/>
<path fill-rule="evenodd" clip-rule="evenodd" d="M52.6782 29.8108C52.6782 28.3578 51.4932 27.1729 50.0403 27.1729C48.5874 27.1729 47.4023 28.3578 47.4023 29.8108C47.4023 31.2637 48.5873 32.4487 50.0403 32.4487C51.4932 32.4487 52.6782 31.2637 52.6782 29.8108Z" fill="#E8ECF7"/>
<path fill-rule="evenodd" clip-rule="evenodd" d="M21.5666 73.6992H78.5108V78.0374H21.5666V73.6992Z" fill="#7D9AC7"/>
</svg>
