<svg width="100" height="100" viewBox="0 0 100 100" fill="none" xmlns="http://www.w3.org/2000/svg">
<g clip-path="url(#clip0_2034_2967)">
<path d="M50.0004 99.9998C75.9084 99.9998 96.9109 78.9972 96.9109 53.0893C96.9109 27.1813 75.9084 6.17871 50.0004 6.17871C24.0924 6.17871 3.08984 27.1813 3.08984 53.0893C3.08984 78.9972 24.0924 99.9998 50.0004 99.9998Z" fill="#B3D8FB"/>
<path d="M50.0023 6.17871C46.9914 6.17838 43.9873 6.46654 41.0312 7.03926C62.6473 11.226 78.9707 30.2498 78.9707 53.0893C78.9707 75.9287 62.6473 94.9525 41.0312 99.1393C43.9873 99.712 46.9914 100 50.0023 99.9998C75.9104 99.9998 96.9129 78.9973 96.9129 53.0893C96.9129 27.1812 75.9104 6.17871 50.0023 6.17871Z" fill="#89C6FC"/>
<path d="M36.8916 42.2307L31.8285 49.3828C29.3893 52.8285 30.2051 57.599 33.6508 60.0383L34.9377 60.9492C35.974 61.6829 36.8113 62.6631 37.3738 63.8014C37.9364 64.9398 38.2066 66.2003 38.16 67.4691L37.4182 87.6346C37.3855 88.5239 37.6012 89.4048 38.041 90.1784C38.4809 90.9521 39.1275 91.588 39.9084 92.0148C40.6894 92.4416 41.5737 92.6425 42.4624 92.5949C43.3511 92.5473 44.2089 92.2532 44.9398 91.7455L58.8103 82.1092C60.8199 80.7131 62.5708 78.9776 63.9846 76.9805L72.9221 64.3553C74.8473 61.6357 74.2033 57.8707 71.4838 55.9455L49.1488 40.1342C45.1852 37.3287 39.6975 38.2672 36.8916 42.2307ZM47.1363 10.6846C46.0502 9.43906 45.899 7.68613 46.6459 6.2998C38.5281 6.87363 30.9812 9.5123 24.5266 13.6947L17.9533 20.268C16.25 21.9713 15.293 24.2815 15.293 26.6904V34.0125C15.293 35.9139 17.4297 37.0314 18.9914 35.9471L24.3924 32.1973C26.149 30.9777 28.2365 30.3241 30.375 30.324H37.326C38.4536 30.324 39.5702 30.1019 40.612 29.6704C41.6537 29.2389 42.6003 28.6063 43.3977 27.809L50.2568 20.9498C52.0106 19.1961 52.1064 16.3838 50.4764 14.5145L47.1363 10.6846Z" fill="#00A564"/>
<path d="M81.1893 18.0527L78.5041 27.399C77.4479 31.0754 77.7283 35.0072 79.2957 38.4965L82.2275 45.0238C82.7193 46.1186 83.4443 47.0928 84.3517 47.8782C85.2592 48.6637 86.3272 49.2415 87.4812 49.5713C88.6351 49.901 89.8472 49.9748 91.0326 49.7875C92.2181 49.6001 93.3483 49.1561 94.3443 48.4865L96.5213 47.0229C95.0395 35.5492 89.4111 25.3768 81.1893 18.0527Z" fill="#00A564"/>
<path d="M96.7938 24.1162C96.4957 31.2605 91.0498 37.5078 88.3643 40.1693C87.5486 40.9777 86.2359 40.9791 85.4203 40.1707C82.6592 37.4346 76.9766 30.9047 76.9766 23.5068C76.9766 17.9947 81.4746 13.533 87.0006 13.5924C92.6375 13.6529 97.0287 18.4836 96.7938 24.1162Z" fill="#1569DC"/>
<path d="M87.9812 13.6533C89.7032 15.6232 90.6016 18.1799 90.4904 20.7939C90.2002 27.7521 85.0277 33.858 82.2773 36.6305C83.2503 37.8757 84.3008 39.0582 85.4227 40.1711C86.2383 40.9793 87.551 40.9779 88.3666 40.1697C91.0521 37.5082 96.498 31.2607 96.7961 24.1166C97.0172 18.8146 93.1389 14.2246 87.9812 13.6533Z" fill="#1569DC"/>
<path d="M86.8943 28.7311C89.5737 28.7311 91.7457 26.559 91.7457 23.8797C91.7457 21.2004 89.5737 19.0283 86.8943 19.0283C84.215 19.0283 82.043 21.2004 82.043 23.8797C82.043 26.559 84.215 28.7311 86.8943 28.7311Z" fill="#E5ECF1"/>
<path d="M87.8293 19.1201C88.7365 20.0016 89.301 21.2342 89.301 22.599C89.301 25.2783 87.1289 27.4504 84.4496 27.4504C84.1348 27.4502 83.8207 27.4196 83.5117 27.359C84.3854 28.208 85.577 28.7314 86.8914 28.7314C89.5707 28.7314 91.7428 26.5594 91.7428 23.8801C91.743 21.5217 90.0598 19.557 87.8293 19.1201Z" fill="#D6E4EA"/>
<path d="M65.6141 39.9297C65.316 47.074 59.8701 53.3213 57.1846 55.9828C56.3689 56.7912 55.0563 56.7926 54.2406 55.9842C51.4795 53.248 45.7969 46.7182 45.7969 39.3203C45.7969 33.8082 50.2949 29.3465 55.8209 29.4059C61.4578 29.4666 65.849 34.2973 65.6141 39.9297Z" fill="#1569DC"/>
<path d="M56.7978 29.4668C58.5198 31.4367 59.4182 33.9934 59.307 36.6074C59.0168 43.5656 53.8443 49.6715 51.0939 52.4439C52.0669 53.6891 53.1174 54.8717 54.2392 55.9846C55.0549 56.7928 56.3676 56.7914 57.1832 55.9832C59.8687 53.3217 65.3146 47.0742 65.6127 39.9301C65.8338 34.6279 61.9555 30.0379 56.7978 29.4668Z" fill="#1569DC"/>
<path d="M55.7107 44.5436C58.3901 44.5436 60.5621 42.3715 60.5621 39.6922C60.5621 37.0129 58.3901 34.8408 55.7107 34.8408C53.0314 34.8408 50.8594 37.0129 50.8594 39.6922C50.8594 42.3715 53.0314 44.5436 55.7107 44.5436Z" fill="#E5ECF1"/>
<path d="M56.6496 34.9326C57.5568 35.8141 58.1213 37.0467 58.1213 38.4115C58.1213 41.0908 55.9492 43.2629 53.2699 43.2629C52.9551 43.2627 52.641 43.2321 52.332 43.1715C53.2057 44.0205 54.3973 44.5439 55.7117 44.5439C58.391 44.5439 60.5631 42.3719 60.5631 39.6926C60.5633 37.3342 58.8801 35.3695 56.6496 34.9326Z" fill="#D6E4EA"/>
<path d="M50.2391 63.1904C49.941 70.3348 44.4951 76.582 41.8096 79.2436C40.9939 80.052 39.6813 80.0533 38.8656 79.2449C36.1045 76.5088 30.4219 69.9789 30.4219 62.5811C30.4219 57.0689 34.9199 52.6072 40.4459 52.6666C46.083 52.7271 50.474 57.5578 50.2391 63.1904Z" fill="#1569DC"/>
<path d="M41.4227 52.7266C43.1446 54.6964 44.043 57.2531 43.9318 59.8672C43.6416 66.8254 38.4691 72.9313 35.7188 75.7037C36.6917 76.9489 37.7422 78.1315 38.8641 79.2443C39.6797 80.0525 40.9924 80.0512 41.808 79.243C44.4936 76.5814 49.9395 70.334 50.2375 63.1898C50.4588 57.8879 46.5805 53.2979 41.4227 52.7266Z" fill="#1569DC"/>
<path d="M40.3357 67.8043C43.0151 67.8043 45.1871 65.6323 45.1871 62.9529C45.1871 60.2736 43.0151 58.1016 40.3357 58.1016C37.6564 58.1016 35.4844 60.2736 35.4844 62.9529C35.4844 65.6323 37.6564 67.8043 40.3357 67.8043Z" fill="#E5ECF1"/>
<path d="M41.2748 58.1934C42.182 59.0748 42.7465 60.3074 42.7465 61.6723C42.7465 64.3516 40.5744 66.5236 37.8951 66.5236C37.5803 66.5235 37.2662 66.4929 36.9572 66.4322C37.8308 67.2812 39.0224 67.8047 40.3369 67.8047C43.0162 67.8047 45.1883 65.6326 45.1883 62.9533C45.1883 60.5949 43.5051 58.6303 41.2748 58.1934Z" fill="#D6E4EA"/>
<path d="M28.3326 10.5244C28.0346 17.6687 22.5887 23.916 19.9031 26.5775C19.0875 27.3859 17.7748 27.3873 16.9592 26.5789C14.1981 23.8428 8.51544 17.3129 8.51544 9.91504C8.51544 4.40293 13.0135 -0.0587892 18.5395 0.00058581C24.1766 0.0611327 28.5676 4.8918 28.3326 10.5244Z" fill="#1569DC"/>
<path d="M19.5164 0.0615234C21.2384 2.0314 22.1368 4.5881 22.0256 7.20215C21.7354 14.1604 16.5629 20.2662 13.8125 23.0387C14.7854 24.2839 15.8359 25.4664 16.9578 26.5793C17.7734 27.3875 19.0861 27.3861 19.9018 26.5779C22.5873 23.9164 28.0332 17.6689 28.3313 10.5248C28.5525 5.22266 24.6742 0.632617 19.5164 0.0615234Z" fill="#1569DC"/>
<path d="M18.4295 15.1393C21.1088 15.1393 23.2809 12.9672 23.2809 10.2879C23.2809 7.60855 21.1088 5.43652 18.4295 5.43652C15.7502 5.43652 13.5781 7.60855 13.5781 10.2879C13.5781 12.9672 15.7502 15.1393 18.4295 15.1393Z" fill="#E5ECF1"/>
<path d="M19.3684 5.52734C20.2756 6.40879 20.84 7.64141 20.84 9.00625C20.84 11.6855 18.668 13.8576 15.9887 13.8576C15.6738 13.8575 15.3597 13.8269 15.0508 13.7662C15.9244 14.6152 17.116 15.1387 18.4305 15.1387C21.1098 15.1387 23.2818 12.9666 23.2818 10.2873C23.2818 7.92891 21.5986 5.96445 19.3684 5.52734Z" fill="#D6E4EA"/>
</g>
<defs>
<clipPath id="clip0_2034_2967">
<rect width="100" height="100" fill="white"/>
</clipPath>
</defs>
</svg>
