<svg width="100" height="100" viewBox="0 0 100 100" fill="none" xmlns="http://www.w3.org/2000/svg">
<circle cx="50" cy="50" r="50" fill="#D7F3FF"/>
<path d="M21.8125 43.4062H78.1909V76.8966H21.8125V43.4062Z" fill="#ECF5FF"/>
<path d="M74.5703 43.4062H78.192V76.8966H74.5703V43.4062Z" fill="#DCEAFC"/>
<path d="M49.9991 32.8119C49.8802 32.8119 49.7625 32.7885 49.6526 32.743C49.5428 32.6976 49.443 32.6309 49.3589 32.5468C49.2748 32.4627 49.2081 32.3629 49.1626 32.253C49.1171 32.1432 49.0937 32.0254 49.0938 31.9065V24.1583C49.0938 23.9182 49.1891 23.6879 49.3589 23.5181C49.5287 23.3483 49.759 23.2529 49.9991 23.2529C50.2393 23.2529 50.4696 23.3483 50.6394 23.5181C50.8091 23.6879 50.9045 23.9182 50.9045 24.1583V31.9065C50.9046 32.0254 50.8811 32.1432 50.8356 32.253C50.7902 32.3629 50.7235 32.4627 50.6394 32.5468C50.5553 32.6309 50.4555 32.6976 50.3456 32.743C50.2358 32.7885 50.118 32.8119 49.9991 32.8119Z" fill="#ECF5FF"/>
<path d="M56.9756 25.4326H49.0938V20.845C49.0938 20.6209 49.1828 20.406 49.3413 20.2475C49.4997 20.089 49.7147 20 49.9388 20H56.9756C57.1997 20 57.4146 20.089 57.5731 20.2475C57.7316 20.406 57.8206 20.6209 57.8206 20.845V24.5875C57.8206 24.8117 57.7316 25.0266 57.5731 25.1851C57.4146 25.3436 57.1997 25.4326 56.9756 25.4326Z" fill="#DB8894"/>
<path d="M56.9772 20H53.3555C53.5796 20 53.7945 20.089 53.953 20.2475C54.1115 20.406 54.2005 20.6209 54.2005 20.845V24.5875C54.2005 24.8117 54.1115 25.0266 53.953 25.1851C53.7945 25.3436 53.5796 25.4326 53.3555 25.4326H56.9772C57.2013 25.4326 57.4162 25.3436 57.5747 25.1851C57.7332 25.0266 57.8222 24.8117 57.8222 24.5875V20.845C57.8222 20.6209 57.7331 20.406 57.5747 20.2475C57.4162 20.0891 57.2013 20 56.9772 20Z" fill="#D4717F"/>
<path d="M79.1551 45.251H20.845C20.6209 45.251 20.406 45.162 20.2475 45.0035C20.089 44.8451 20 44.6301 20 44.406V39.8256C20 39.6015 20.089 39.3865 20.2475 39.2281C20.406 39.0696 20.6209 38.9806 20.845 38.9806H33.0765C33.4868 38.9806 33.8904 38.876 34.2491 38.6767L49.5896 30.1542C49.7151 30.0845 49.8563 30.0479 49.9999 30.0479C50.1436 30.0479 50.2848 30.0845 50.4103 30.1542L65.7508 38.6767C66.1095 38.8759 66.5131 38.9805 66.9234 38.9806H79.1548C79.379 38.9806 79.5939 39.0696 79.7524 39.2281C79.9109 39.3865 79.9999 39.6015 79.9999 39.8256V44.406C79.9999 44.517 79.9781 44.6268 79.9356 44.7294C79.8932 44.8319 79.831 44.925 79.7525 45.0035C79.6741 45.082 79.5809 45.1442 79.4784 45.1867C79.3759 45.2292 79.266 45.251 79.1551 45.251Z" fill="#BDD8FC"/>
<path d="M79.1529 38.9805H75.5312C75.7554 38.9805 75.9703 39.0695 76.1288 39.228C76.2873 39.3865 76.3763 39.6014 76.3763 39.8255V44.4059C76.3763 44.63 76.2873 44.845 76.1288 45.0034C75.9703 45.1619 75.7554 45.251 75.5312 45.251H79.1529C79.3771 45.251 79.592 45.1619 79.7505 45.0034C79.9089 44.845 79.998 44.63 79.998 44.4059V39.8255C79.9979 39.6014 79.9089 39.3865 79.7504 39.228C79.592 39.0695 79.377 38.9805 79.1529 38.9805Z" fill="#9DC7FB"/>
<path d="M49.9997 41.8197C51.7772 41.8197 53.2181 40.3788 53.2181 38.6013C53.2181 36.8238 51.7772 35.3828 49.9997 35.3828C48.2222 35.3828 46.7812 36.8238 46.7812 38.6013C46.7812 40.3788 48.2222 41.8197 49.9997 41.8197Z" fill="#4F6D8F"/>
<path d="M50.0023 35.3828C49.3562 35.3818 48.725 35.5763 48.1914 35.9406C49.041 36.52 49.5989 37.4954 49.5989 38.6013C49.5989 39.7072 49.041 40.6825 48.1914 41.2619C48.725 41.6262 49.3562 41.8206 50.0023 41.8197C51.7798 41.8197 53.2208 40.3788 53.2208 38.6013C53.2208 36.8236 51.7798 35.3828 50.0023 35.3828Z" fill="#455E7E"/>
<path d="M29.0547 45.251H35.2577V76.3706H29.0547V45.251Z" fill="#BDD8FC"/>
<path d="M31.6367 45.251H35.2584V76.3706H31.6367V45.251Z" fill="#9DC7FB"/>
<path d="M37.0669 45.251H27.2422V47.6655C27.2422 48.3323 27.7827 48.8728 28.4495 48.8728H35.8597C36.5265 48.8728 37.067 48.3323 37.067 47.6655V45.251H37.0669Z" fill="#4F6D8F"/>
<path d="M33.4495 45.251V47.6655C33.4495 48.3322 32.909 48.8728 32.2422 48.8728H35.8639C36.5307 48.8728 37.0711 48.3323 37.0711 47.6655V45.251H33.4495Z" fill="#455E7E"/>
<path d="M35.8596 72.749H28.4495C27.7827 72.749 27.2422 73.2895 27.2422 73.9563V76.3708H37.0669V73.9563C37.0669 73.2896 36.5264 72.749 35.8596 72.749Z" fill="#4F6D8F"/>
<path d="M35.8639 72.749H32.2422C32.909 72.749 33.4495 73.2895 33.4495 73.9563V76.3708H37.0711V73.9563C37.0711 73.2896 36.5307 72.749 35.8639 72.749Z" fill="#455E7E"/>
<path d="M64.7423 45.251H70.9453V76.3706H64.7423V45.251Z" fill="#BDD8FC"/>
<path d="M67.3242 45.251H70.9459V76.3706H67.3242V45.251Z" fill="#9DC7FB"/>
<path d="M72.7583 45.251H62.9336V47.6655C62.9336 48.3323 63.4741 48.8728 64.1409 48.8728H71.5511C72.2179 48.8728 72.7584 48.3323 72.7584 47.6655V45.251H72.7583Z" fill="#4F6D8F"/>
<path d="M69.133 45.251V47.6655C69.133 48.3322 68.5926 48.8728 67.9258 48.8728H71.5475C72.2143 48.8728 72.7547 48.3323 72.7547 47.6655V45.251H69.133Z" fill="#455E7E"/>
<path d="M71.5511 72.749H64.1409C63.4741 72.749 62.9336 73.2895 62.9336 73.9563V76.3708H72.7583V73.9563C72.7584 73.2896 72.2179 72.749 71.5511 72.749Z" fill="#4F6D8F"/>
<path d="M71.5475 72.749H67.9258C68.5926 72.749 69.133 73.2895 69.133 73.9563V76.3708H72.7547V73.9563C72.7547 73.2896 72.2143 72.749 71.5475 72.749Z" fill="#455E7E"/>
<path d="M56.1605 76.3712H43.8398V60.719C43.8398 60.0522 44.3803 59.5117 45.0471 59.5117H54.9533C55.6201 59.5117 56.1606 60.0522 56.1606 60.719V76.3712H56.1605Z" fill="#CE9775"/>
<path d="M54.9537 59.5117H51.332C51.9987 59.5117 52.5393 60.0522 52.5393 60.719V76.3712H56.161V60.719C56.161 60.0522 55.6205 59.5117 54.9537 59.5117Z" fill="#C6855B"/>
<path d="M57.8032 54.323H42.1927C42.0817 54.323 41.9718 54.3011 41.8693 54.2587C41.7668 54.2162 41.6736 54.1539 41.5952 54.0755C41.5167 53.997 41.4544 53.9038 41.412 53.8013C41.3695 53.6988 41.3477 53.5889 41.3477 53.4779V51.2855C41.3477 51.1745 41.3695 51.0646 41.412 50.9621C41.4544 50.8596 41.5167 50.7664 41.5952 50.6879C41.6736 50.6095 41.7668 50.5472 41.8693 50.5048C41.9718 50.4623 42.0817 50.4404 42.1927 50.4404H57.8032C58.0273 50.4404 58.2422 50.5295 58.4007 50.6879C58.5592 50.8464 58.6482 51.0614 58.6482 51.2855V53.4779C58.6482 53.5889 58.6264 53.6988 58.5839 53.8013C58.5414 53.9039 58.4792 53.997 58.4007 54.0755C58.3223 54.154 58.2291 54.2162 58.1266 54.2587C58.024 54.3011 57.9141 54.323 57.8032 54.323Z" fill="#DB8894"/>
<path d="M57.8053 50.4404H54.1837C54.2946 50.4404 54.4045 50.4623 54.507 50.5048C54.6096 50.5472 54.7027 50.6095 54.7812 50.6879C54.8597 50.7664 54.9219 50.8596 54.9644 50.9621C55.0068 51.0646 55.0287 51.1745 55.0287 51.2855V53.4779C55.0287 53.5889 55.0068 53.6988 54.9644 53.8013C54.9219 53.9038 54.8597 53.997 54.7812 54.0755C54.7027 54.1539 54.6096 54.2162 54.507 54.2587C54.4045 54.3011 54.2946 54.323 54.1837 54.323H57.8053C57.9163 54.323 58.0262 54.3011 58.1287 54.2587C58.2313 54.2162 58.3244 54.154 58.4029 54.0755C58.4814 53.997 58.5436 53.9039 58.5861 53.8013C58.6286 53.6988 58.6504 53.5889 58.6504 53.4779V51.2855C58.6504 51.1745 58.6285 51.0646 58.5861 50.9621C58.5436 50.8596 58.4813 50.7664 58.4029 50.6879C58.3244 50.6095 58.2312 50.5472 58.1287 50.5048C58.0262 50.4623 57.9163 50.4404 57.8053 50.4404Z" fill="#D4717F"/>
<path d="M21.2073 76.3711H78.7929C79.4597 76.3711 80.0001 76.9127 80.0001 77.5808V78.7906C80.0001 79.4586 79.4597 80.0003 78.7929 80.0003H21.2073C20.5405 80.0004 20 79.4588 20 78.7907V77.5809C20 76.9127 20.5405 76.3711 21.2073 76.3711Z" fill="#BEE49D"/>
<path d="M78.7937 76.3711H75.172C75.8388 76.3711 76.3793 76.9127 76.3793 77.5808V78.7906C76.3793 79.4586 75.8388 80.0003 75.172 80.0003H78.7937C79.4605 80.0003 80.001 79.4586 80.001 78.7906V77.5808C80.001 76.9127 79.4605 76.3711 78.7937 76.3711Z" fill="#A3D8A4"/>
</svg>
