<svg width="100" height="100" viewBox="0 0 100 100" fill="none" xmlns="http://www.w3.org/2000/svg">
<g clip-path="url(#clip0_2034_3597)">
<path d="M99.9977 50C99.9977 75.683 80.6355 96.842 55.7125 99.6752C55.3923 99.7137 55.0716 99.7474 54.7504 99.7762C54.1764 99.8312 53.6014 99.8753 53.0258 99.9084C52.7059 99.9301 52.3836 99.9445 52.0637 99.959C51.4912 99.9807 50.9164 99.9951 50.3416 99.9975C50.2285 99.9998 50.1131 99.9998 50 99.9998C49.7932 99.9998 49.5863 99.9975 49.3795 99.9949C48.8043 99.9901 48.2293 99.9733 47.6549 99.9443C47.3326 99.9299 47.0127 99.9131 46.6928 99.8914C20.6201 98.1889 0 76.5033 0 50C0 22.3855 22.3855 0 50 0C77.6121 0 99.9977 22.3855 99.9977 50Z" fill="#D7F3FF"/>
<path d="M50.4805 4.28613H51.9236V19.6797H50.4805V4.28613Z" fill="white"/>
<path d="M52.9656 18.958L53.5305 34.5109H48.8748L49.4396 18.958H51.2027H52.9656Z" fill="#CCCCCC"/>
<path d="M55.692 33.3896V38.0389H46.7109V33.3896H52.9645H55.692Z" fill="#E6E6E6"/>
<path d="M57.6951 36.7568V43.4914L55.7709 46.0561L56.8934 54.7148L56.6512 94.4029L54.1643 99.8268C52.7908 99.9422 51.4006 100 49.9984 100C49.4092 100 48.8223 99.9904 48.2379 99.9687L45.3484 93.6799L45.6691 70.2689L45.8295 47.6598L44.707 43.4914V36.7568H57.6951Z" fill="#B3B3B3"/>
<path d="M50.3402 38.5195V99.9973C50.2271 99.9996 50.1117 99.9996 49.9986 99.9996C49.7918 99.9996 49.585 99.9973 49.3781 99.9947V38.5195H50.3402ZM53.0244 38.5195V99.9084C52.7045 99.9301 52.3822 99.9445 52.0623 99.959V38.5195H53.0244ZM55.7111 38.5195V99.675C55.391 99.7135 55.0702 99.7472 54.749 99.776V38.5195H55.7111ZM47.6535 38.5195V99.9443C47.3312 99.9299 47.0113 99.9131 46.6914 99.8914V38.5195H47.6535Z" fill="#B1B3B5"/>
<path d="M41.8205 81.1719L48.2377 91.916L39.8963 98.9803C29.5754 96.8613 20.4139 91.5625 13.4844 84.1545H17.2871V81.3332H21.6166V85.6627H28.0314V75.8807H31.7187V86.4637H35.5672V81.1719H41.8205ZM86.2379 78.2855H91.2287C84.4941 88.0916 74.3488 95.3723 62.5055 98.4221L56.6535 96.8467L55.5303 88.7891L60.5812 82.2949H64.1098V80.0508H66.6738V77.4844H70.0412V85.3422H75.0129V81.3326H78.8613V74.1172H86.2383L86.2379 78.2855Z" fill="#666666"/>
<path d="M48.2406 43.4912V54.8744H43.1055V43.4912H44.7098H48.2406ZM59.3022 43.4912V54.8744H54.167V43.4912H57.6979H59.3022Z" fill="#CCCCCC"/>
<path d="M44.5469 45.0938H45.509V83.4164H44.5469V45.0938ZM46.3098 45.0938H47.2719V83.4164H46.3098V45.0938ZM55.1299 45.0938H56.092V83.4164H55.1299V45.0938ZM56.893 45.0938H57.8551V83.4164H56.893V45.0938Z" fill="#B1B3B5"/>
<path d="M48.2375 53.2715V92.5578H41.8203V53.2715H43.1023H48.2375ZM60.5811 84.1633V94.4033H54.1639V53.2715H60.5811V84.1633Z" fill="#E6E6E6"/>
<path d="M55.5291 54.875H56.4912V93.1977H55.5291V54.875ZM57.7756 54.875H58.7377V93.1977H57.7756V54.875ZM43.6641 54.875H44.6262V93.1977H43.6641V54.875ZM45.9082 54.875H46.8703V93.1977H45.9082V54.875Z" fill="#B1B3B5"/>
<path d="M62.5076 91.916V98.4223C62.0549 98.5395 61.6003 98.6493 61.1439 98.7518C60.824 98.8264 60.5041 98.8961 60.1818 98.9609C59.7561 99.05 59.3279 99.1316 58.8998 99.2086C58.5796 99.2665 58.2588 99.3218 57.9377 99.3746C57.5119 99.4395 57.0863 99.5022 56.6557 99.5598C56.3357 99.6031 56.0158 99.6416 55.6936 99.6775C55.1852 99.7347 54.676 99.7844 54.1662 99.8268V91.916H62.5076ZM48.2398 91.916V99.9688C47.7304 99.9512 47.2212 99.9263 46.7125 99.8941C46.3902 99.8725 46.0703 99.8484 45.7504 99.8221C45.3227 99.7842 44.8953 99.7425 44.4684 99.6971C44.1461 99.6609 43.8262 99.6225 43.5062 99.5816C43.0782 99.5258 42.6508 99.4649 42.2242 99.3988C41.9031 99.3484 41.5824 99.2954 41.2621 99.24C40.8051 99.1582 40.3506 99.0717 39.8984 98.9803V91.916H48.2398Z" fill="#CCCCCC"/>
<path d="M56.6553 93.3596V99.5604C56.3353 99.6037 56.0154 99.6422 55.6932 99.6781V93.3596H56.6553ZM58.8994 93.3596V99.2092C58.5792 99.2671 58.2584 99.3224 57.9373 99.3752V93.3598H58.8994V93.3596ZM61.1436 93.3596V98.7522C60.8236 98.8268 60.5037 98.8965 60.1814 98.9613V93.3596H61.1436ZM42.2238 93.3596V99.399C41.9027 99.3486 41.582 99.2956 41.2617 99.2402V93.3594H42.2238V93.3596ZM44.468 93.3596V99.6973C44.1457 99.6611 43.8258 99.6227 43.5059 99.5818V93.3596H44.468ZM46.7121 93.3596V99.8945C46.3898 99.8729 46.0699 99.8488 45.75 99.8225V93.3596H46.7121Z" fill="#B1B3B5"/>
</g>
<defs>
<clipPath id="clip0_2034_3597">
<rect width="100" height="100" fill="white"/>
</clipPath>
</defs>
</svg>
