<svg width="16" height="16" viewBox="0 0 16 16" fill="none" xmlns="http://www.w3.org/2000/svg">
<g clip-path="url(#clip0_2045_10501)">
<path d="M12.4206 1.22916H11.8835V0.625C11.8835 0.279813 11.6318 0 11.3212 0C11.0107 0 10.759 0.279813 10.759 0.625V1.22916H5.24255V0.625C5.24255 0.279813 4.99083 0 4.6803 0C4.36977 0 4.11805 0.279813 4.11805 0.625V1.22916H3.58096C2.04796 1.22916 0.800781 2.61553 0.800781 4.31959V12.9095C0.800781 14.6136 2.04796 16 3.58096 16H12.4206C13.9536 16 15.2008 14.6136 15.2008 12.9095V4.31959C15.2008 2.61553 13.9536 1.22916 12.4206 1.22916ZM3.58096 2.47916H4.11805V3.69791C4.11805 4.04309 4.36977 4.32291 4.6803 4.32291C4.99083 4.32291 5.24255 4.04309 5.24255 3.69791V2.47916H10.759V3.69791C10.759 4.04309 11.0107 4.32291 11.3213 4.32291C11.6318 4.32291 11.8835 4.04309 11.8835 3.69791V2.47916H12.4206C13.3335 2.47916 14.0763 3.30478 14.0763 4.31959V4.91666H1.92528V4.31959C1.92528 3.30478 2.66801 2.47916 3.58096 2.47916ZM12.4206 14.75H3.58096C2.66801 14.75 1.92528 13.9244 1.92528 12.9095V6.16666H14.0763V12.9095C14.0763 13.9244 13.3335 14.75 12.4206 14.75ZM5.79544 8.625C5.79544 8.97019 5.54372 9.25 5.23319 9.25H4.12744C3.81691 9.25 3.56519 8.97019 3.56519 8.625C3.56519 8.27981 3.81691 8 4.12744 8H5.23319C5.54369 8 5.79544 8.27981 5.79544 8.625ZM12.4364 8.625C12.4364 8.97019 12.1847 9.25 11.8741 9.25H10.7684C10.4579 9.25 10.2061 8.97019 10.2061 8.625C10.2061 8.27981 10.4579 8 10.7684 8H11.8741C12.1846 8 12.4364 8.27981 12.4364 8.625ZM9.11271 8.625C9.11271 8.97019 8.86099 9.25 8.55046 9.25H7.44472C7.13419 9.25 6.88247 8.97019 6.88247 8.625C6.88247 8.27981 7.13419 8 7.44472 8H8.55046C8.86097 8 9.11271 8.27981 9.11271 8.625ZM5.79544 12.3125C5.79544 12.6577 5.54372 12.9375 5.23319 12.9375H4.12744C3.81691 12.9375 3.56519 12.6577 3.56519 12.3125C3.56519 11.9673 3.81691 11.6875 4.12744 11.6875H5.23319C5.54369 11.6875 5.79544 11.9673 5.79544 12.3125ZM12.4364 12.3125C12.4364 12.6577 12.1847 12.9375 11.8741 12.9375H10.7684C10.4579 12.9375 10.2061 12.6577 10.2061 12.3125C10.2061 11.9673 10.4579 11.6875 10.7684 11.6875H11.8741C12.1846 11.6875 12.4364 11.9673 12.4364 12.3125ZM9.11271 12.3125C9.11271 12.6577 8.86099 12.9375 8.55046 12.9375H7.44472C7.13419 12.9375 6.88247 12.6577 6.88247 12.3125C6.88247 11.9673 7.13419 11.6875 7.44472 11.6875H8.55046C8.86097 11.6875 9.11271 11.9673 9.11271 12.3125Z" fill="white"/>
</g>
<defs>
<clipPath id="clip0_2045_10501">
<rect width="16" height="16" fill="white"/>
</clipPath>
</defs>
</svg>
